<?xml version="1.0" encoding="utf-8" standalone="no"?>
<!DOCTYPE svg PUBLIC "-//W3C//DTD SVG 1.1//EN"
  "http://www.w3.org/Graphics/SVG/1.1/DTD/svg11.dtd">
<!-- Created with matplotlib (https://matplotlib.org/) -->
<svg height="325.984252pt" version="1.1" viewBox="0 0 737.007874 325.984252" width="737.007874pt" xmlns="http://www.w3.org/2000/svg" xmlns:xlink="http://www.w3.org/1999/xlink">
 <defs>
  <style type="text/css">
*{stroke-linecap:butt;stroke-linejoin:round;}
  </style>
 </defs>
 <g id="figure_1">
  <g id="patch_1">
   <path d="M 0 325.984252 
L 737.007874 325.984252 
L 737.007874 0 
L 0 0 
z
" style="fill:none;"/>
  </g>
  <g id="axes_1">
   <g id="patch_2">
    <path d="M 28.346457 297.637795 
L 708.661417 297.637795 
L 708.661417 28.346457 
L 28.346457 28.346457 
z
" style="fill:none;"/>
   </g>
   <g id="matplotlib.axis_1">
    <g id="xtick_1">
     <g id="line2d_1">
      <defs>
       <path d="M 0 0 
L 0 3.5 
" id="m40906e1929" style="stroke:#000000;stroke-width:0.8;"/>
      </defs>
      <g>
       <use style="stroke:#000000;stroke-width:0.8;" x="85.03937" xlink:href="#m40906e1929" y="297.637795"/>
      </g>
     </g>
     <g id="text_1">
      <!-- −20 -->
      <defs>
       <path d="M 10.59375 35.5 
L 73.1875 35.5 
L 73.1875 27.203125 
L 10.59375 27.203125 
z
" id="DejaVuSans-8722"/>
       <path d="M 19.1875 8.296875 
L 53.609375 8.296875 
L 53.609375 0 
L 7.328125 0 
L 7.328125 8.296875 
Q 12.9375 14.109375 22.625 23.890625 
Q 32.328125 33.6875 34.8125 36.53125 
Q 39.546875 41.84375 41.421875 45.53125 
Q 43.3125 49.21875 43.3125 52.78125 
Q 43.3125 58.59375 39.234375 62.25 
Q 35.15625 65.921875 28.609375 65.921875 
Q 23.96875 65.921875 18.8125 64.3125 
Q 13.671875 62.703125 7.8125 59.421875 
L 7.8125 69.390625 
Q 13.765625 71.78125 18.9375 73 
Q 24.125 74.21875 28.421875 74.21875 
Q 39.75 74.21875 46.484375 68.546875 
Q 53.21875 62.890625 53.21875 53.421875 
Q 53.21875 48.921875 51.53125 44.890625 
Q 49.859375 40.875 45.40625 35.40625 
Q 44.1875 33.984375 37.640625 27.21875 
Q 31.109375 20.453125 19.1875 8.296875 
z
" id="DejaVuSans-50"/>
       <path d="M 31.78125 66.40625 
Q 24.171875 66.40625 20.328125 58.90625 
Q 16.5 51.421875 16.5 36.375 
Q 16.5 21.390625 20.328125 13.890625 
Q 24.171875 6.390625 31.78125 6.390625 
Q 39.453125 6.390625 43.28125 13.890625 
Q 47.125 21.390625 47.125 36.375 
Q 47.125 51.421875 43.28125 58.90625 
Q 39.453125 66.40625 31.78125 66.40625 
z
M 31.78125 74.21875 
Q 44.046875 74.21875 50.515625 64.515625 
Q 56.984375 54.828125 56.984375 36.375 
Q 56.984375 17.96875 50.515625 8.265625 
Q 44.046875 -1.421875 31.78125 -1.421875 
Q 19.53125 -1.421875 13.0625 8.265625 
Q 6.59375 17.96875 6.59375 36.375 
Q 6.59375 54.828125 13.0625 64.515625 
Q 19.53125 74.21875 31.78125 74.21875 
z
" id="DejaVuSans-48"/>
      </defs>
      <g transform="translate(74.487026 312.236233)scale(0.1 -0.1)">
       <use xlink:href="#DejaVuSans-8722"/>
       <use x="83.789062" xlink:href="#DejaVuSans-50"/>
       <use x="147.412109" xlink:href="#DejaVuSans-48"/>
      </g>
     </g>
    </g>
    <g id="xtick_2">
     <g id="line2d_2">
      <g>
       <use style="stroke:#000000;stroke-width:0.8;" x="155.905512" xlink:href="#m40906e1929" y="297.637795"/>
      </g>
     </g>
     <g id="text_2">
      <!-- −15 -->
      <defs>
       <path d="M 12.40625 8.296875 
L 28.515625 8.296875 
L 28.515625 63.921875 
L 10.984375 60.40625 
L 10.984375 69.390625 
L 28.421875 72.90625 
L 38.28125 72.90625 
L 38.28125 8.296875 
L 54.390625 8.296875 
L 54.390625 0 
L 12.40625 0 
z
" id="DejaVuSans-49"/>
       <path d="M 10.796875 72.90625 
L 49.515625 72.90625 
L 49.515625 64.59375 
L 19.828125 64.59375 
L 19.828125 46.734375 
Q 21.96875 47.46875 24.109375 47.828125 
Q 26.265625 48.1875 28.421875 48.1875 
Q 40.625 48.1875 47.75 41.5 
Q 54.890625 34.8125 54.890625 23.390625 
Q 54.890625 11.625 47.5625 5.09375 
Q 40.234375 -1.421875 26.90625 -1.421875 
Q 22.3125 -1.421875 17.546875 -0.640625 
Q 12.796875 0.140625 7.71875 1.703125 
L 7.71875 11.625 
Q 12.109375 9.234375 16.796875 8.0625 
Q 21.484375 6.890625 26.703125 6.890625 
Q 35.15625 6.890625 40.078125 11.328125 
Q 45.015625 15.765625 45.015625 23.390625 
Q 45.015625 31 40.078125 35.4375 
Q 35.15625 39.890625 26.703125 39.890625 
Q 22.75 39.890625 18.8125 39.015625 
Q 14.890625 38.140625 10.796875 36.28125 
z
" id="DejaVuSans-53"/>
      </defs>
      <g transform="translate(145.353168 312.236233)scale(0.1 -0.1)">
       <use xlink:href="#DejaVuSans-8722"/>
       <use x="83.789062" xlink:href="#DejaVuSans-49"/>
       <use x="147.412109" xlink:href="#DejaVuSans-53"/>
      </g>
     </g>
    </g>
    <g id="xtick_3">
     <g id="line2d_3">
      <g>
       <use style="stroke:#000000;stroke-width:0.8;" x="226.771654" xlink:href="#m40906e1929" y="297.637795"/>
      </g>
     </g>
     <g id="text_3">
      <!-- −10 -->
      <g transform="translate(216.21931 312.236233)scale(0.1 -0.1)">
       <use xlink:href="#DejaVuSans-8722"/>
       <use x="83.789062" xlink:href="#DejaVuSans-49"/>
       <use x="147.412109" xlink:href="#DejaVuSans-48"/>
      </g>
     </g>
    </g>
    <g id="xtick_4">
     <g id="line2d_4">
      <g>
       <use style="stroke:#000000;stroke-width:0.8;" x="297.637795" xlink:href="#m40906e1929" y="297.637795"/>
      </g>
     </g>
     <g id="text_4">
      <!-- −5 -->
      <g transform="translate(290.266702 312.236233)scale(0.1 -0.1)">
       <use xlink:href="#DejaVuSans-8722"/>
       <use x="83.789062" xlink:href="#DejaVuSans-53"/>
      </g>
     </g>
    </g>
    <g id="xtick_5">
     <g id="line2d_5">
      <g>
       <use style="stroke:#000000;stroke-width:0.8;" x="368.503937" xlink:href="#m40906e1929" y="297.637795"/>
      </g>
     </g>
     <g id="text_5">
      <!-- 0 -->
      <g transform="translate(365.322687 312.236233)scale(0.1 -0.1)">
       <use xlink:href="#DejaVuSans-48"/>
      </g>
     </g>
    </g>
    <g id="xtick_6">
     <g id="line2d_6">
      <g>
       <use style="stroke:#000000;stroke-width:0.8;" x="439.370079" xlink:href="#m40906e1929" y="297.637795"/>
      </g>
     </g>
     <g id="text_6">
      <!-- 5 -->
      <g transform="translate(436.188829 312.236233)scale(0.1 -0.1)">
       <use xlink:href="#DejaVuSans-53"/>
      </g>
     </g>
    </g>
    <g id="xtick_7">
     <g id="line2d_7">
      <g>
       <use style="stroke:#000000;stroke-width:0.8;" x="510.23622" xlink:href="#m40906e1929" y="297.637795"/>
      </g>
     </g>
     <g id="text_7">
      <!-- 10 -->
      <g transform="translate(503.87372 312.236233)scale(0.1 -0.1)">
       <use xlink:href="#DejaVuSans-49"/>
       <use x="63.623047" xlink:href="#DejaVuSans-48"/>
      </g>
     </g>
    </g>
    <g id="xtick_8">
     <g id="line2d_8">
      <g>
       <use style="stroke:#000000;stroke-width:0.8;" x="581.102362" xlink:href="#m40906e1929" y="297.637795"/>
      </g>
     </g>
     <g id="text_8">
      <!-- 15 -->
      <g transform="translate(574.739862 312.236233)scale(0.1 -0.1)">
       <use xlink:href="#DejaVuSans-49"/>
       <use x="63.623047" xlink:href="#DejaVuSans-53"/>
      </g>
     </g>
    </g>
    <g id="xtick_9">
     <g id="line2d_9">
      <g>
       <use style="stroke:#000000;stroke-width:0.8;" x="651.968504" xlink:href="#m40906e1929" y="297.637795"/>
      </g>
     </g>
     <g id="text_9">
      <!-- 20 -->
      <g transform="translate(645.606004 312.236233)scale(0.1 -0.1)">
       <use xlink:href="#DejaVuSans-50"/>
       <use x="63.623047" xlink:href="#DejaVuSans-48"/>
      </g>
     </g>
    </g>
    <g id="xtick_10">
     <g id="line2d_10">
      <defs>
       <path d="M 0 0 
L 0 2 
" id="m638b4aa881" style="stroke:#000000;stroke-width:0.6;"/>
      </defs>
      <g>
       <use style="stroke:#000000;stroke-width:0.6;" x="28.346457" xlink:href="#m638b4aa881" y="297.637795"/>
      </g>
     </g>
    </g>
    <g id="xtick_11">
     <g id="line2d_11">
      <g>
       <use style="stroke:#000000;stroke-width:0.6;" x="42.519685" xlink:href="#m638b4aa881" y="297.637795"/>
      </g>
     </g>
    </g>
    <g id="xtick_12">
     <g id="line2d_12">
      <g>
       <use style="stroke:#000000;stroke-width:0.6;" x="56.692913" xlink:href="#m638b4aa881" y="297.637795"/>
      </g>
     </g>
    </g>
    <g id="xtick_13">
     <g id="line2d_13">
      <g>
       <use style="stroke:#000000;stroke-width:0.6;" x="70.866142" xlink:href="#m638b4aa881" y="297.637795"/>
      </g>
     </g>
    </g>
    <g id="xtick_14">
     <g id="line2d_14">
      <g>
       <use style="stroke:#000000;stroke-width:0.6;" x="99.212598" xlink:href="#m638b4aa881" y="297.637795"/>
      </g>
     </g>
    </g>
    <g id="xtick_15">
     <g id="line2d_15">
      <g>
       <use style="stroke:#000000;stroke-width:0.6;" x="113.385827" xlink:href="#m638b4aa881" y="297.637795"/>
      </g>
     </g>
    </g>
    <g id="xtick_16">
     <g id="line2d_16">
      <g>
       <use style="stroke:#000000;stroke-width:0.6;" x="127.559055" xlink:href="#m638b4aa881" y="297.637795"/>
      </g>
     </g>
    </g>
    <g id="xtick_17">
     <g id="line2d_17">
      <g>
       <use style="stroke:#000000;stroke-width:0.6;" x="141.732283" xlink:href="#m638b4aa881" y="297.637795"/>
      </g>
     </g>
    </g>
    <g id="xtick_18">
     <g id="line2d_18">
      <g>
       <use style="stroke:#000000;stroke-width:0.6;" x="170.07874" xlink:href="#m638b4aa881" y="297.637795"/>
      </g>
     </g>
    </g>
    <g id="xtick_19">
     <g id="line2d_19">
      <g>
       <use style="stroke:#000000;stroke-width:0.6;" x="184.251969" xlink:href="#m638b4aa881" y="297.637795"/>
      </g>
     </g>
    </g>
    <g id="xtick_20">
     <g id="line2d_20">
      <g>
       <use style="stroke:#000000;stroke-width:0.6;" x="198.425197" xlink:href="#m638b4aa881" y="297.637795"/>
      </g>
     </g>
    </g>
    <g id="xtick_21">
     <g id="line2d_21">
      <g>
       <use style="stroke:#000000;stroke-width:0.6;" x="212.598425" xlink:href="#m638b4aa881" y="297.637795"/>
      </g>
     </g>
    </g>
    <g id="xtick_22">
     <g id="line2d_22">
      <g>
       <use style="stroke:#000000;stroke-width:0.6;" x="240.944882" xlink:href="#m638b4aa881" y="297.637795"/>
      </g>
     </g>
    </g>
    <g id="xtick_23">
     <g id="line2d_23">
      <g>
       <use style="stroke:#000000;stroke-width:0.6;" x="255.11811" xlink:href="#m638b4aa881" y="297.637795"/>
      </g>
     </g>
    </g>
    <g id="xtick_24">
     <g id="line2d_24">
      <g>
       <use style="stroke:#000000;stroke-width:0.6;" x="269.291339" xlink:href="#m638b4aa881" y="297.637795"/>
      </g>
     </g>
    </g>
    <g id="xtick_25">
     <g id="line2d_25">
      <g>
       <use style="stroke:#000000;stroke-width:0.6;" x="283.464567" xlink:href="#m638b4aa881" y="297.637795"/>
      </g>
     </g>
    </g>
    <g id="xtick_26">
     <g id="line2d_26">
      <g>
       <use style="stroke:#000000;stroke-width:0.6;" x="311.811024" xlink:href="#m638b4aa881" y="297.637795"/>
      </g>
     </g>
    </g>
    <g id="xtick_27">
     <g id="line2d_27">
      <g>
       <use style="stroke:#000000;stroke-width:0.6;" x="325.984252" xlink:href="#m638b4aa881" y="297.637795"/>
      </g>
     </g>
    </g>
    <g id="xtick_28">
     <g id="line2d_28">
      <g>
       <use style="stroke:#000000;stroke-width:0.6;" x="340.15748" xlink:href="#m638b4aa881" y="297.637795"/>
      </g>
     </g>
    </g>
    <g id="xtick_29">
     <g id="line2d_29">
      <g>
       <use style="stroke:#000000;stroke-width:0.6;" x="354.330709" xlink:href="#m638b4aa881" y="297.637795"/>
      </g>
     </g>
    </g>
    <g id="xtick_30">
     <g id="line2d_30">
      <g>
       <use style="stroke:#000000;stroke-width:0.6;" x="382.677165" xlink:href="#m638b4aa881" y="297.637795"/>
      </g>
     </g>
    </g>
    <g id="xtick_31">
     <g id="line2d_31">
      <g>
       <use style="stroke:#000000;stroke-width:0.6;" x="396.850394" xlink:href="#m638b4aa881" y="297.637795"/>
      </g>
     </g>
    </g>
    <g id="xtick_32">
     <g id="line2d_32">
      <g>
       <use style="stroke:#000000;stroke-width:0.6;" x="411.023622" xlink:href="#m638b4aa881" y="297.637795"/>
      </g>
     </g>
    </g>
    <g id="xtick_33">
     <g id="line2d_33">
      <g>
       <use style="stroke:#000000;stroke-width:0.6;" x="425.19685" xlink:href="#m638b4aa881" y="297.637795"/>
      </g>
     </g>
    </g>
    <g id="xtick_34">
     <g id="line2d_34">
      <g>
       <use style="stroke:#000000;stroke-width:0.6;" x="453.543307" xlink:href="#m638b4aa881" y="297.637795"/>
      </g>
     </g>
    </g>
    <g id="xtick_35">
     <g id="line2d_35">
      <g>
       <use style="stroke:#000000;stroke-width:0.6;" x="467.716535" xlink:href="#m638b4aa881" y="297.637795"/>
      </g>
     </g>
    </g>
    <g id="xtick_36">
     <g id="line2d_36">
      <g>
       <use style="stroke:#000000;stroke-width:0.6;" x="481.889764" xlink:href="#m638b4aa881" y="297.637795"/>
      </g>
     </g>
    </g>
    <g id="xtick_37">
     <g id="line2d_37">
      <g>
       <use style="stroke:#000000;stroke-width:0.6;" x="496.062992" xlink:href="#m638b4aa881" y="297.637795"/>
      </g>
     </g>
    </g>
    <g id="xtick_38">
     <g id="line2d_38">
      <g>
       <use style="stroke:#000000;stroke-width:0.6;" x="524.409449" xlink:href="#m638b4aa881" y="297.637795"/>
      </g>
     </g>
    </g>
    <g id="xtick_39">
     <g id="line2d_39">
      <g>
       <use style="stroke:#000000;stroke-width:0.6;" x="538.582677" xlink:href="#m638b4aa881" y="297.637795"/>
      </g>
     </g>
    </g>
    <g id="xtick_40">
     <g id="line2d_40">
      <g>
       <use style="stroke:#000000;stroke-width:0.6;" x="552.755906" xlink:href="#m638b4aa881" y="297.637795"/>
      </g>
     </g>
    </g>
    <g id="xtick_41">
     <g id="line2d_41">
      <g>
       <use style="stroke:#000000;stroke-width:0.6;" x="566.929134" xlink:href="#m638b4aa881" y="297.637795"/>
      </g>
     </g>
    </g>
    <g id="xtick_42">
     <g id="line2d_42">
      <g>
       <use style="stroke:#000000;stroke-width:0.6;" x="595.275591" xlink:href="#m638b4aa881" y="297.637795"/>
      </g>
     </g>
    </g>
    <g id="xtick_43">
     <g id="line2d_43">
      <g>
       <use style="stroke:#000000;stroke-width:0.6;" x="609.448819" xlink:href="#m638b4aa881" y="297.637795"/>
      </g>
     </g>
    </g>
    <g id="xtick_44">
     <g id="line2d_44">
      <g>
       <use style="stroke:#000000;stroke-width:0.6;" x="623.622047" xlink:href="#m638b4aa881" y="297.637795"/>
      </g>
     </g>
    </g>
    <g id="xtick_45">
     <g id="line2d_45">
      <g>
       <use style="stroke:#000000;stroke-width:0.6;" x="637.795276" xlink:href="#m638b4aa881" y="297.637795"/>
      </g>
     </g>
    </g>
    <g id="xtick_46">
     <g id="line2d_46">
      <g>
       <use style="stroke:#000000;stroke-width:0.6;" x="666.141732" xlink:href="#m638b4aa881" y="297.637795"/>
      </g>
     </g>
    </g>
    <g id="xtick_47">
     <g id="line2d_47">
      <g>
       <use style="stroke:#000000;stroke-width:0.6;" x="680.314961" xlink:href="#m638b4aa881" y="297.637795"/>
      </g>
     </g>
    </g>
    <g id="xtick_48">
     <g id="line2d_48">
      <g>
       <use style="stroke:#000000;stroke-width:0.6;" x="694.488189" xlink:href="#m638b4aa881" y="297.637795"/>
      </g>
     </g>
    </g>
    <g id="xtick_49">
     <g id="line2d_49">
      <g>
       <use style="stroke:#000000;stroke-width:0.6;" x="708.661417" xlink:href="#m638b4aa881" y="297.637795"/>
      </g>
     </g>
    </g>
   </g>
   <g id="matplotlib.axis_2">
    <g id="ytick_1">
     <g id="line2d_50">
      <defs>
       <path d="M 0 0 
L -3.5 0 
" id="m6de96b85dc" style="stroke:#000000;stroke-width:0.8;"/>
      </defs>
      <g>
       <use style="stroke:#000000;stroke-width:0.8;" x="28.346457" xlink:href="#m6de96b85dc" y="233.858268"/>
      </g>
     </g>
     <g id="text_10">
      <!-- −5 -->
      <g transform="translate(6.604269 237.657486)scale(0.1 -0.1)">
       <use xlink:href="#DejaVuSans-8722"/>
       <use x="83.789062" xlink:href="#DejaVuSans-53"/>
      </g>
     </g>
    </g>
    <g id="ytick_2">
     <g id="line2d_51">
      <g>
       <use style="stroke:#000000;stroke-width:0.8;" x="28.346457" xlink:href="#m6de96b85dc" y="162.992126"/>
      </g>
     </g>
     <g id="text_11">
      <!-- 0 -->
      <g transform="translate(14.983957 166.791345)scale(0.1 -0.1)">
       <use xlink:href="#DejaVuSans-48"/>
      </g>
     </g>
    </g>
    <g id="ytick_3">
     <g id="line2d_52">
      <g>
       <use style="stroke:#000000;stroke-width:0.8;" x="28.346457" xlink:href="#m6de96b85dc" y="92.125984"/>
      </g>
     </g>
     <g id="text_12">
      <!-- 5 -->
      <g transform="translate(14.983957 95.925203)scale(0.1 -0.1)">
       <use xlink:href="#DejaVuSans-53"/>
      </g>
     </g>
    </g>
    <g id="ytick_4">
     <g id="line2d_53">
      <defs>
       <path d="M 0 0 
L -2 0 
" id="mc63d3c5262" style="stroke:#000000;stroke-width:0.6;"/>
      </defs>
      <g>
       <use style="stroke:#000000;stroke-width:0.6;" x="28.346457" xlink:href="#mc63d3c5262" y="290.551181"/>
      </g>
     </g>
    </g>
    <g id="ytick_5">
     <g id="line2d_54">
      <g>
       <use style="stroke:#000000;stroke-width:0.6;" x="28.346457" xlink:href="#mc63d3c5262" y="276.377953"/>
      </g>
     </g>
    </g>
    <g id="ytick_6">
     <g id="line2d_55">
      <g>
       <use style="stroke:#000000;stroke-width:0.6;" x="28.346457" xlink:href="#mc63d3c5262" y="262.204724"/>
      </g>
     </g>
    </g>
    <g id="ytick_7">
     <g id="line2d_56">
      <g>
       <use style="stroke:#000000;stroke-width:0.6;" x="28.346457" xlink:href="#mc63d3c5262" y="248.031496"/>
      </g>
     </g>
    </g>
    <g id="ytick_8">
     <g id="line2d_57">
      <g>
       <use style="stroke:#000000;stroke-width:0.6;" x="28.346457" xlink:href="#mc63d3c5262" y="219.685039"/>
      </g>
     </g>
    </g>
    <g id="ytick_9">
     <g id="line2d_58">
      <g>
       <use style="stroke:#000000;stroke-width:0.6;" x="28.346457" xlink:href="#mc63d3c5262" y="205.511811"/>
      </g>
     </g>
    </g>
    <g id="ytick_10">
     <g id="line2d_59">
      <g>
       <use style="stroke:#000000;stroke-width:0.6;" x="28.346457" xlink:href="#mc63d3c5262" y="191.338583"/>
      </g>
     </g>
    </g>
    <g id="ytick_11">
     <g id="line2d_60">
      <g>
       <use style="stroke:#000000;stroke-width:0.6;" x="28.346457" xlink:href="#mc63d3c5262" y="177.165354"/>
      </g>
     </g>
    </g>
    <g id="ytick_12">
     <g id="line2d_61">
      <g>
       <use style="stroke:#000000;stroke-width:0.6;" x="28.346457" xlink:href="#mc63d3c5262" y="148.818898"/>
      </g>
     </g>
    </g>
    <g id="ytick_13">
     <g id="line2d_62">
      <g>
       <use style="stroke:#000000;stroke-width:0.6;" x="28.346457" xlink:href="#mc63d3c5262" y="134.645669"/>
      </g>
     </g>
    </g>
    <g id="ytick_14">
     <g id="line2d_63">
      <g>
       <use style="stroke:#000000;stroke-width:0.6;" x="28.346457" xlink:href="#mc63d3c5262" y="120.472441"/>
      </g>
     </g>
    </g>
    <g id="ytick_15">
     <g id="line2d_64">
      <g>
       <use style="stroke:#000000;stroke-width:0.6;" x="28.346457" xlink:href="#mc63d3c5262" y="106.299213"/>
      </g>
     </g>
    </g>
    <g id="ytick_16">
     <g id="line2d_65">
      <g>
       <use style="stroke:#000000;stroke-width:0.6;" x="28.346457" xlink:href="#mc63d3c5262" y="77.952756"/>
      </g>
     </g>
    </g>
    <g id="ytick_17">
     <g id="line2d_66">
      <g>
       <use style="stroke:#000000;stroke-width:0.6;" x="28.346457" xlink:href="#mc63d3c5262" y="63.779528"/>
      </g>
     </g>
    </g>
    <g id="ytick_18">
     <g id="line2d_67">
      <g>
       <use style="stroke:#000000;stroke-width:0.6;" x="28.346457" xlink:href="#mc63d3c5262" y="49.606299"/>
      </g>
     </g>
    </g>
    <g id="ytick_19">
     <g id="line2d_68">
      <g>
       <use style="stroke:#000000;stroke-width:0.6;" x="28.346457" xlink:href="#mc63d3c5262" y="35.433071"/>
      </g>
     </g>
    </g>
   </g>
   <g id="line2d_69">
    <path clip-path="url(#p64634424a2)" d="M 198.425197 141.63286 
L 199.834016 137.931739 
L 201.47811 134.239516 
L 203.360315 130.560837 
L 205.486299 126.895753 
L 207.858898 123.250461 
L 210.482362 119.628965 
L 213.360945 116.035838 
L 216.498898 112.476121 
L 219.899055 108.956672 
L 223.564252 105.484267 
L 227.497323 102.065721 
L 231.699685 98.709056 
L 236.171339 95.423137 
L 240.912283 92.216484 
L 245.921102 89.098285 
L 251.193543 86.078954 
L 256.726772 83.167507 
L 262.515118 80.374019 
L 268.551496 77.708589 
L 274.827402 75.181234 
L 281.334331 72.801307 
L 288.059528 70.578982 
L 294.990236 68.52349 
L 302.113701 66.643284 
L 309.412913 64.947093 
L 316.872283 63.442338 
L 324.473386 62.136139 
L 332.196378 61.03482 
L 340.022835 60.143519 
L 347.930079 59.466882 
L 355.898268 59.008218 
L 363.903307 58.770062 
L 371.925354 58.753726 
L 379.940315 58.959566 
L 387.925512 59.386783 
L 395.858268 60.03347 
L 403.717323 60.896756 
L 411.481417 61.972745 
L 419.130709 63.256711 
L 426.643937 64.742623 
L 434.002677 66.423872 
L 441.189921 68.293196 
L 448.188661 70.342343 
L 454.983307 72.562413 
L 461.561102 74.944473 
L 467.909291 77.478703 
L 474.017953 80.155518 
L 479.877165 82.964508 
L 485.479843 85.895772 
L 490.818898 88.938656 
L 495.890079 92.083341 
L 500.689134 95.319349 
L 505.214646 98.637454 
L 509.465197 102.027951 
L 513.442205 105.482981 
L 517.145669 108.993172 
L 520.577008 112.549887 
L 523.740472 116.147268 
L 526.638898 119.778024 
L 529.276535 123.436595 
L 531.65622 127.115422 
L 533.783622 130.811332 
L 535.662992 134.519607 
L 537.3 138.239382 
L 538.58126 141.628798 
L 538.58126 141.628798 
" style="fill:none;stroke:#ff0000;stroke-linecap:square;stroke-width:1.5;"/>
   </g>
   <g id="line2d_70">
    <path clip-path="url(#p64634424a2)" d="M 198.425197 141.63286 
L 198.425197 184.152545 
" style="fill:none;stroke:#ff0000;stroke-linecap:square;stroke-width:1.5;"/>
   </g>
   <g id="line2d_71">
    <path clip-path="url(#p64634424a2)" d="M 538.582677 141.628798 
L 538.582677 184.148483 
" style="fill:none;stroke:#ff0000;stroke-linecap:square;stroke-width:1.5;"/>
   </g>
   <g id="line2d_72">
    <path clip-path="url(#p64634424a2)" d="M 198.425197 184.152545 
L 199.834016 180.451424 
L 201.47811 176.759201 
L 203.360315 173.080522 
L 205.486299 169.415438 
L 207.858898 165.770146 
L 210.482362 162.14865 
L 213.360945 158.555523 
L 216.498898 154.995806 
L 219.899055 151.476357 
L 223.564252 148.003952 
L 227.497323 144.585407 
L 231.699685 141.228741 
L 236.171339 137.942822 
L 240.912283 134.73617 
L 245.921102 131.61797 
L 251.193543 128.598639 
L 256.726772 125.687192 
L 262.515118 122.893704 
L 268.551496 120.228274 
L 274.827402 117.70092 
L 281.334331 115.320992 
L 288.059528 113.098667 
L 294.990236 111.043175 
L 302.113701 109.162969 
L 309.412913 107.466778 
L 316.872283 105.962023 
L 324.473386 104.655824 
L 332.196378 103.554505 
L 340.022835 102.663204 
L 347.930079 101.986567 
L 355.898268 101.527903 
L 363.903307 101.289747 
L 371.925354 101.273411 
L 379.940315 101.479251 
L 387.925512 101.906468 
L 395.858268 102.553155 
L 403.717323 103.416441 
L 411.481417 104.49243 
L 419.130709 105.776396 
L 426.643937 107.262308 
L 434.002677 108.943557 
L 441.189921 110.812881 
L 448.188661 112.862028 
L 454.983307 115.082098 
L 461.561102 117.464158 
L 467.909291 119.998388 
L 474.017953 122.675204 
L 479.877165 125.484193 
L 485.479843 128.415457 
L 490.818898 131.458341 
L 495.890079 134.603026 
L 500.689134 137.839034 
L 505.214646 141.157139 
L 509.465197 144.547636 
L 513.442205 148.002666 
L 517.145669 151.512857 
L 520.577008 155.069572 
L 523.740472 158.666953 
L 526.638898 162.297709 
L 529.276535 165.95628 
L 531.65622 169.635107 
L 533.783622 173.331017 
L 535.662992 177.039292 
L 537.3 180.759067 
L 538.58126 184.148483 
L 538.58126 184.148483 
" style="fill:none;stroke:#ff0000;stroke-linecap:square;stroke-width:1.5;"/>
   </g>
   <g id="patch_3">
    <path d="M 28.346457 297.637795 
L 28.346457 28.346457 
" style="fill:none;stroke:#000000;stroke-linecap:square;stroke-linejoin:miter;stroke-width:0.8;"/>
   </g>
   <g id="patch_4">
    <path d="M 708.661417 297.637795 
L 708.661417 28.346457 
" style="fill:none;stroke:#000000;stroke-linecap:square;stroke-linejoin:miter;stroke-width:0.8;"/>
   </g>
   <g id="patch_5">
    <path d="M 28.346457 297.637795 
L 708.661417 297.637795 
" style="fill:none;stroke:#000000;stroke-linecap:square;stroke-linejoin:miter;stroke-width:0.8;"/>
   </g>
   <g id="patch_6">
    <path d="M 28.346457 28.346457 
L 708.661417 28.346457 
" style="fill:none;stroke:#000000;stroke-linecap:square;stroke-linejoin:miter;stroke-width:0.8;"/>
   </g>
  </g>
 </g>
 <defs>
  <clipPath id="p64634424a2">
   <rect height="269.291339" width="680.314961" x="28.346457" y="28.346457"/>
  </clipPath>
 </defs>
</svg>
