<?xml version="1.0" encoding="utf-8" standalone="no"?>
<!DOCTYPE svg PUBLIC "-//W3C//DTD SVG 1.1//EN"
  "http://www.w3.org/Graphics/SVG/1.1/DTD/svg11.dtd">
<!-- Created with matplotlib (https://matplotlib.org/) -->
<svg height="325.984252pt" version="1.1" viewBox="0 0 737.007874 325.984252" width="737.007874pt" xmlns="http://www.w3.org/2000/svg" xmlns:xlink="http://www.w3.org/1999/xlink">
 <defs>
  <style type="text/css">
*{stroke-linecap:butt;stroke-linejoin:round;}
  </style>
 </defs>
 <g id="figure_1">
  <g id="patch_1">
   <path d="M 0 325.984252 
L 737.007874 325.984252 
L 737.007874 0 
L 0 0 
z
" style="fill:none;"/>
  </g>
  <g id="axes_1">
   <g id="patch_2">
    <path d="M 28.346457 297.637795 
L 708.661417 297.637795 
L 708.661417 28.346457 
L 28.346457 28.346457 
z
" style="fill:none;"/>
   </g>
   <g id="matplotlib.axis_1">
    <g id="xtick_1">
     <g id="line2d_1">
      <defs>
       <path d="M 0 0 
L 0 3.5 
" id="md9c32369e2" style="stroke:#000000;stroke-width:0.8;"/>
      </defs>
      <g>
       <use style="stroke:#000000;stroke-width:0.8;" x="85.03937" xlink:href="#md9c32369e2" y="297.637795"/>
      </g>
     </g>
     <g id="text_1">
      <!-- −20 -->
      <defs>
       <path d="M 10.59375 35.5 
L 73.1875 35.5 
L 73.1875 27.203125 
L 10.59375 27.203125 
z
" id="DejaVuSans-8722"/>
       <path d="M 19.1875 8.296875 
L 53.609375 8.296875 
L 53.609375 0 
L 7.328125 0 
L 7.328125 8.296875 
Q 12.9375 14.109375 22.625 23.890625 
Q 32.328125 33.6875 34.8125 36.53125 
Q 39.546875 41.84375 41.421875 45.53125 
Q 43.3125 49.21875 43.3125 52.78125 
Q 43.3125 58.59375 39.234375 62.25 
Q 35.15625 65.921875 28.609375 65.921875 
Q 23.96875 65.921875 18.8125 64.3125 
Q 13.671875 62.703125 7.8125 59.421875 
L 7.8125 69.390625 
Q 13.765625 71.78125 18.9375 73 
Q 24.125 74.21875 28.421875 74.21875 
Q 39.75 74.21875 46.484375 68.546875 
Q 53.21875 62.890625 53.21875 53.421875 
Q 53.21875 48.921875 51.53125 44.890625 
Q 49.859375 40.875 45.40625 35.40625 
Q 44.1875 33.984375 37.640625 27.21875 
Q 31.109375 20.453125 19.1875 8.296875 
z
" id="DejaVuSans-50"/>
       <path d="M 31.78125 66.40625 
Q 24.171875 66.40625 20.328125 58.90625 
Q 16.5 51.421875 16.5 36.375 
Q 16.5 21.390625 20.328125 13.890625 
Q 24.171875 6.390625 31.78125 6.390625 
Q 39.453125 6.390625 43.28125 13.890625 
Q 47.125 21.390625 47.125 36.375 
Q 47.125 51.421875 43.28125 58.90625 
Q 39.453125 66.40625 31.78125 66.40625 
z
M 31.78125 74.21875 
Q 44.046875 74.21875 50.515625 64.515625 
Q 56.984375 54.828125 56.984375 36.375 
Q 56.984375 17.96875 50.515625 8.265625 
Q 44.046875 -1.421875 31.78125 -1.421875 
Q 19.53125 -1.421875 13.0625 8.265625 
Q 6.59375 17.96875 6.59375 36.375 
Q 6.59375 54.828125 13.0625 64.515625 
Q 19.53125 74.21875 31.78125 74.21875 
z
" id="DejaVuSans-48"/>
      </defs>
      <g transform="translate(74.487026 312.236233)scale(0.1 -0.1)">
       <use xlink:href="#DejaVuSans-8722"/>
       <use x="83.789062" xlink:href="#DejaVuSans-50"/>
       <use x="147.412109" xlink:href="#DejaVuSans-48"/>
      </g>
     </g>
    </g>
    <g id="xtick_2">
     <g id="line2d_2">
      <g>
       <use style="stroke:#000000;stroke-width:0.8;" x="155.905512" xlink:href="#md9c32369e2" y="297.637795"/>
      </g>
     </g>
     <g id="text_2">
      <!-- −15 -->
      <defs>
       <path d="M 12.40625 8.296875 
L 28.515625 8.296875 
L 28.515625 63.921875 
L 10.984375 60.40625 
L 10.984375 69.390625 
L 28.421875 72.90625 
L 38.28125 72.90625 
L 38.28125 8.296875 
L 54.390625 8.296875 
L 54.390625 0 
L 12.40625 0 
z
" id="DejaVuSans-49"/>
       <path d="M 10.796875 72.90625 
L 49.515625 72.90625 
L 49.515625 64.59375 
L 19.828125 64.59375 
L 19.828125 46.734375 
Q 21.96875 47.46875 24.109375 47.828125 
Q 26.265625 48.1875 28.421875 48.1875 
Q 40.625 48.1875 47.75 41.5 
Q 54.890625 34.8125 54.890625 23.390625 
Q 54.890625 11.625 47.5625 5.09375 
Q 40.234375 -1.421875 26.90625 -1.421875 
Q 22.3125 -1.421875 17.546875 -0.640625 
Q 12.796875 0.140625 7.71875 1.703125 
L 7.71875 11.625 
Q 12.109375 9.234375 16.796875 8.0625 
Q 21.484375 6.890625 26.703125 6.890625 
Q 35.15625 6.890625 40.078125 11.328125 
Q 45.015625 15.765625 45.015625 23.390625 
Q 45.015625 31 40.078125 35.4375 
Q 35.15625 39.890625 26.703125 39.890625 
Q 22.75 39.890625 18.8125 39.015625 
Q 14.890625 38.140625 10.796875 36.28125 
z
" id="DejaVuSans-53"/>
      </defs>
      <g transform="translate(145.353168 312.236233)scale(0.1 -0.1)">
       <use xlink:href="#DejaVuSans-8722"/>
       <use x="83.789062" xlink:href="#DejaVuSans-49"/>
       <use x="147.412109" xlink:href="#DejaVuSans-53"/>
      </g>
     </g>
    </g>
    <g id="xtick_3">
     <g id="line2d_3">
      <g>
       <use style="stroke:#000000;stroke-width:0.8;" x="226.771654" xlink:href="#md9c32369e2" y="297.637795"/>
      </g>
     </g>
     <g id="text_3">
      <!-- −10 -->
      <g transform="translate(216.21931 312.236233)scale(0.1 -0.1)">
       <use xlink:href="#DejaVuSans-8722"/>
       <use x="83.789062" xlink:href="#DejaVuSans-49"/>
       <use x="147.412109" xlink:href="#DejaVuSans-48"/>
      </g>
     </g>
    </g>
    <g id="xtick_4">
     <g id="line2d_4">
      <g>
       <use style="stroke:#000000;stroke-width:0.8;" x="297.637795" xlink:href="#md9c32369e2" y="297.637795"/>
      </g>
     </g>
     <g id="text_4">
      <!-- −5 -->
      <g transform="translate(290.266702 312.236233)scale(0.1 -0.1)">
       <use xlink:href="#DejaVuSans-8722"/>
       <use x="83.789062" xlink:href="#DejaVuSans-53"/>
      </g>
     </g>
    </g>
    <g id="xtick_5">
     <g id="line2d_5">
      <g>
       <use style="stroke:#000000;stroke-width:0.8;" x="368.503937" xlink:href="#md9c32369e2" y="297.637795"/>
      </g>
     </g>
     <g id="text_5">
      <!-- 0 -->
      <g transform="translate(365.322687 312.236233)scale(0.1 -0.1)">
       <use xlink:href="#DejaVuSans-48"/>
      </g>
     </g>
    </g>
    <g id="xtick_6">
     <g id="line2d_6">
      <g>
       <use style="stroke:#000000;stroke-width:0.8;" x="439.370079" xlink:href="#md9c32369e2" y="297.637795"/>
      </g>
     </g>
     <g id="text_6">
      <!-- 5 -->
      <g transform="translate(436.188829 312.236233)scale(0.1 -0.1)">
       <use xlink:href="#DejaVuSans-53"/>
      </g>
     </g>
    </g>
    <g id="xtick_7">
     <g id="line2d_7">
      <g>
       <use style="stroke:#000000;stroke-width:0.8;" x="510.23622" xlink:href="#md9c32369e2" y="297.637795"/>
      </g>
     </g>
     <g id="text_7">
      <!-- 10 -->
      <g transform="translate(503.87372 312.236233)scale(0.1 -0.1)">
       <use xlink:href="#DejaVuSans-49"/>
       <use x="63.623047" xlink:href="#DejaVuSans-48"/>
      </g>
     </g>
    </g>
    <g id="xtick_8">
     <g id="line2d_8">
      <g>
       <use style="stroke:#000000;stroke-width:0.8;" x="581.102362" xlink:href="#md9c32369e2" y="297.637795"/>
      </g>
     </g>
     <g id="text_8">
      <!-- 15 -->
      <g transform="translate(574.739862 312.236233)scale(0.1 -0.1)">
       <use xlink:href="#DejaVuSans-49"/>
       <use x="63.623047" xlink:href="#DejaVuSans-53"/>
      </g>
     </g>
    </g>
    <g id="xtick_9">
     <g id="line2d_9">
      <g>
       <use style="stroke:#000000;stroke-width:0.8;" x="651.968504" xlink:href="#md9c32369e2" y="297.637795"/>
      </g>
     </g>
     <g id="text_9">
      <!-- 20 -->
      <g transform="translate(645.606004 312.236233)scale(0.1 -0.1)">
       <use xlink:href="#DejaVuSans-50"/>
       <use x="63.623047" xlink:href="#DejaVuSans-48"/>
      </g>
     </g>
    </g>
    <g id="xtick_10">
     <g id="line2d_10">
      <defs>
       <path d="M 0 0 
L 0 2 
" id="mbe96346e9f" style="stroke:#000000;stroke-width:0.6;"/>
      </defs>
      <g>
       <use style="stroke:#000000;stroke-width:0.6;" x="28.346457" xlink:href="#mbe96346e9f" y="297.637795"/>
      </g>
     </g>
    </g>
    <g id="xtick_11">
     <g id="line2d_11">
      <g>
       <use style="stroke:#000000;stroke-width:0.6;" x="42.519685" xlink:href="#mbe96346e9f" y="297.637795"/>
      </g>
     </g>
    </g>
    <g id="xtick_12">
     <g id="line2d_12">
      <g>
       <use style="stroke:#000000;stroke-width:0.6;" x="56.692913" xlink:href="#mbe96346e9f" y="297.637795"/>
      </g>
     </g>
    </g>
    <g id="xtick_13">
     <g id="line2d_13">
      <g>
       <use style="stroke:#000000;stroke-width:0.6;" x="70.866142" xlink:href="#mbe96346e9f" y="297.637795"/>
      </g>
     </g>
    </g>
    <g id="xtick_14">
     <g id="line2d_14">
      <g>
       <use style="stroke:#000000;stroke-width:0.6;" x="99.212598" xlink:href="#mbe96346e9f" y="297.637795"/>
      </g>
     </g>
    </g>
    <g id="xtick_15">
     <g id="line2d_15">
      <g>
       <use style="stroke:#000000;stroke-width:0.6;" x="113.385827" xlink:href="#mbe96346e9f" y="297.637795"/>
      </g>
     </g>
    </g>
    <g id="xtick_16">
     <g id="line2d_16">
      <g>
       <use style="stroke:#000000;stroke-width:0.6;" x="127.559055" xlink:href="#mbe96346e9f" y="297.637795"/>
      </g>
     </g>
    </g>
    <g id="xtick_17">
     <g id="line2d_17">
      <g>
       <use style="stroke:#000000;stroke-width:0.6;" x="141.732283" xlink:href="#mbe96346e9f" y="297.637795"/>
      </g>
     </g>
    </g>
    <g id="xtick_18">
     <g id="line2d_18">
      <g>
       <use style="stroke:#000000;stroke-width:0.6;" x="170.07874" xlink:href="#mbe96346e9f" y="297.637795"/>
      </g>
     </g>
    </g>
    <g id="xtick_19">
     <g id="line2d_19">
      <g>
       <use style="stroke:#000000;stroke-width:0.6;" x="184.251969" xlink:href="#mbe96346e9f" y="297.637795"/>
      </g>
     </g>
    </g>
    <g id="xtick_20">
     <g id="line2d_20">
      <g>
       <use style="stroke:#000000;stroke-width:0.6;" x="198.425197" xlink:href="#mbe96346e9f" y="297.637795"/>
      </g>
     </g>
    </g>
    <g id="xtick_21">
     <g id="line2d_21">
      <g>
       <use style="stroke:#000000;stroke-width:0.6;" x="212.598425" xlink:href="#mbe96346e9f" y="297.637795"/>
      </g>
     </g>
    </g>
    <g id="xtick_22">
     <g id="line2d_22">
      <g>
       <use style="stroke:#000000;stroke-width:0.6;" x="240.944882" xlink:href="#mbe96346e9f" y="297.637795"/>
      </g>
     </g>
    </g>
    <g id="xtick_23">
     <g id="line2d_23">
      <g>
       <use style="stroke:#000000;stroke-width:0.6;" x="255.11811" xlink:href="#mbe96346e9f" y="297.637795"/>
      </g>
     </g>
    </g>
    <g id="xtick_24">
     <g id="line2d_24">
      <g>
       <use style="stroke:#000000;stroke-width:0.6;" x="269.291339" xlink:href="#mbe96346e9f" y="297.637795"/>
      </g>
     </g>
    </g>
    <g id="xtick_25">
     <g id="line2d_25">
      <g>
       <use style="stroke:#000000;stroke-width:0.6;" x="283.464567" xlink:href="#mbe96346e9f" y="297.637795"/>
      </g>
     </g>
    </g>
    <g id="xtick_26">
     <g id="line2d_26">
      <g>
       <use style="stroke:#000000;stroke-width:0.6;" x="311.811024" xlink:href="#mbe96346e9f" y="297.637795"/>
      </g>
     </g>
    </g>
    <g id="xtick_27">
     <g id="line2d_27">
      <g>
       <use style="stroke:#000000;stroke-width:0.6;" x="325.984252" xlink:href="#mbe96346e9f" y="297.637795"/>
      </g>
     </g>
    </g>
    <g id="xtick_28">
     <g id="line2d_28">
      <g>
       <use style="stroke:#000000;stroke-width:0.6;" x="340.15748" xlink:href="#mbe96346e9f" y="297.637795"/>
      </g>
     </g>
    </g>
    <g id="xtick_29">
     <g id="line2d_29">
      <g>
       <use style="stroke:#000000;stroke-width:0.6;" x="354.330709" xlink:href="#mbe96346e9f" y="297.637795"/>
      </g>
     </g>
    </g>
    <g id="xtick_30">
     <g id="line2d_30">
      <g>
       <use style="stroke:#000000;stroke-width:0.6;" x="382.677165" xlink:href="#mbe96346e9f" y="297.637795"/>
      </g>
     </g>
    </g>
    <g id="xtick_31">
     <g id="line2d_31">
      <g>
       <use style="stroke:#000000;stroke-width:0.6;" x="396.850394" xlink:href="#mbe96346e9f" y="297.637795"/>
      </g>
     </g>
    </g>
    <g id="xtick_32">
     <g id="line2d_32">
      <g>
       <use style="stroke:#000000;stroke-width:0.6;" x="411.023622" xlink:href="#mbe96346e9f" y="297.637795"/>
      </g>
     </g>
    </g>
    <g id="xtick_33">
     <g id="line2d_33">
      <g>
       <use style="stroke:#000000;stroke-width:0.6;" x="425.19685" xlink:href="#mbe96346e9f" y="297.637795"/>
      </g>
     </g>
    </g>
    <g id="xtick_34">
     <g id="line2d_34">
      <g>
       <use style="stroke:#000000;stroke-width:0.6;" x="453.543307" xlink:href="#mbe96346e9f" y="297.637795"/>
      </g>
     </g>
    </g>
    <g id="xtick_35">
     <g id="line2d_35">
      <g>
       <use style="stroke:#000000;stroke-width:0.6;" x="467.716535" xlink:href="#mbe96346e9f" y="297.637795"/>
      </g>
     </g>
    </g>
    <g id="xtick_36">
     <g id="line2d_36">
      <g>
       <use style="stroke:#000000;stroke-width:0.6;" x="481.889764" xlink:href="#mbe96346e9f" y="297.637795"/>
      </g>
     </g>
    </g>
    <g id="xtick_37">
     <g id="line2d_37">
      <g>
       <use style="stroke:#000000;stroke-width:0.6;" x="496.062992" xlink:href="#mbe96346e9f" y="297.637795"/>
      </g>
     </g>
    </g>
    <g id="xtick_38">
     <g id="line2d_38">
      <g>
       <use style="stroke:#000000;stroke-width:0.6;" x="524.409449" xlink:href="#mbe96346e9f" y="297.637795"/>
      </g>
     </g>
    </g>
    <g id="xtick_39">
     <g id="line2d_39">
      <g>
       <use style="stroke:#000000;stroke-width:0.6;" x="538.582677" xlink:href="#mbe96346e9f" y="297.637795"/>
      </g>
     </g>
    </g>
    <g id="xtick_40">
     <g id="line2d_40">
      <g>
       <use style="stroke:#000000;stroke-width:0.6;" x="552.755906" xlink:href="#mbe96346e9f" y="297.637795"/>
      </g>
     </g>
    </g>
    <g id="xtick_41">
     <g id="line2d_41">
      <g>
       <use style="stroke:#000000;stroke-width:0.6;" x="566.929134" xlink:href="#mbe96346e9f" y="297.637795"/>
      </g>
     </g>
    </g>
    <g id="xtick_42">
     <g id="line2d_42">
      <g>
       <use style="stroke:#000000;stroke-width:0.6;" x="595.275591" xlink:href="#mbe96346e9f" y="297.637795"/>
      </g>
     </g>
    </g>
    <g id="xtick_43">
     <g id="line2d_43">
      <g>
       <use style="stroke:#000000;stroke-width:0.6;" x="609.448819" xlink:href="#mbe96346e9f" y="297.637795"/>
      </g>
     </g>
    </g>
    <g id="xtick_44">
     <g id="line2d_44">
      <g>
       <use style="stroke:#000000;stroke-width:0.6;" x="623.622047" xlink:href="#mbe96346e9f" y="297.637795"/>
      </g>
     </g>
    </g>
    <g id="xtick_45">
     <g id="line2d_45">
      <g>
       <use style="stroke:#000000;stroke-width:0.6;" x="637.795276" xlink:href="#mbe96346e9f" y="297.637795"/>
      </g>
     </g>
    </g>
    <g id="xtick_46">
     <g id="line2d_46">
      <g>
       <use style="stroke:#000000;stroke-width:0.6;" x="666.141732" xlink:href="#mbe96346e9f" y="297.637795"/>
      </g>
     </g>
    </g>
    <g id="xtick_47">
     <g id="line2d_47">
      <g>
       <use style="stroke:#000000;stroke-width:0.6;" x="680.314961" xlink:href="#mbe96346e9f" y="297.637795"/>
      </g>
     </g>
    </g>
    <g id="xtick_48">
     <g id="line2d_48">
      <g>
       <use style="stroke:#000000;stroke-width:0.6;" x="694.488189" xlink:href="#mbe96346e9f" y="297.637795"/>
      </g>
     </g>
    </g>
    <g id="xtick_49">
     <g id="line2d_49">
      <g>
       <use style="stroke:#000000;stroke-width:0.6;" x="708.661417" xlink:href="#mbe96346e9f" y="297.637795"/>
      </g>
     </g>
    </g>
   </g>
   <g id="matplotlib.axis_2">
    <g id="ytick_1">
     <g id="line2d_50">
      <defs>
       <path d="M 0 0 
L -3.5 0 
" id="mc0259ada6b" style="stroke:#000000;stroke-width:0.8;"/>
      </defs>
      <g>
       <use style="stroke:#000000;stroke-width:0.8;" x="28.346457" xlink:href="#mc0259ada6b" y="233.858268"/>
      </g>
     </g>
     <g id="text_10">
      <!-- −5 -->
      <g transform="translate(6.604269 237.657486)scale(0.1 -0.1)">
       <use xlink:href="#DejaVuSans-8722"/>
       <use x="83.789062" xlink:href="#DejaVuSans-53"/>
      </g>
     </g>
    </g>
    <g id="ytick_2">
     <g id="line2d_51">
      <g>
       <use style="stroke:#000000;stroke-width:0.8;" x="28.346457" xlink:href="#mc0259ada6b" y="162.992126"/>
      </g>
     </g>
     <g id="text_11">
      <!-- 0 -->
      <g transform="translate(14.983957 166.791345)scale(0.1 -0.1)">
       <use xlink:href="#DejaVuSans-48"/>
      </g>
     </g>
    </g>
    <g id="ytick_3">
     <g id="line2d_52">
      <g>
       <use style="stroke:#000000;stroke-width:0.8;" x="28.346457" xlink:href="#mc0259ada6b" y="92.125984"/>
      </g>
     </g>
     <g id="text_12">
      <!-- 5 -->
      <g transform="translate(14.983957 95.925203)scale(0.1 -0.1)">
       <use xlink:href="#DejaVuSans-53"/>
      </g>
     </g>
    </g>
    <g id="ytick_4">
     <g id="line2d_53">
      <defs>
       <path d="M 0 0 
L -2 0 
" id="m9d5464ed3a" style="stroke:#000000;stroke-width:0.6;"/>
      </defs>
      <g>
       <use style="stroke:#000000;stroke-width:0.6;" x="28.346457" xlink:href="#m9d5464ed3a" y="290.551181"/>
      </g>
     </g>
    </g>
    <g id="ytick_5">
     <g id="line2d_54">
      <g>
       <use style="stroke:#000000;stroke-width:0.6;" x="28.346457" xlink:href="#m9d5464ed3a" y="276.377953"/>
      </g>
     </g>
    </g>
    <g id="ytick_6">
     <g id="line2d_55">
      <g>
       <use style="stroke:#000000;stroke-width:0.6;" x="28.346457" xlink:href="#m9d5464ed3a" y="262.204724"/>
      </g>
     </g>
    </g>
    <g id="ytick_7">
     <g id="line2d_56">
      <g>
       <use style="stroke:#000000;stroke-width:0.6;" x="28.346457" xlink:href="#m9d5464ed3a" y="248.031496"/>
      </g>
     </g>
    </g>
    <g id="ytick_8">
     <g id="line2d_57">
      <g>
       <use style="stroke:#000000;stroke-width:0.6;" x="28.346457" xlink:href="#m9d5464ed3a" y="219.685039"/>
      </g>
     </g>
    </g>
    <g id="ytick_9">
     <g id="line2d_58">
      <g>
       <use style="stroke:#000000;stroke-width:0.6;" x="28.346457" xlink:href="#m9d5464ed3a" y="205.511811"/>
      </g>
     </g>
    </g>
    <g id="ytick_10">
     <g id="line2d_59">
      <g>
       <use style="stroke:#000000;stroke-width:0.6;" x="28.346457" xlink:href="#m9d5464ed3a" y="191.338583"/>
      </g>
     </g>
    </g>
    <g id="ytick_11">
     <g id="line2d_60">
      <g>
       <use style="stroke:#000000;stroke-width:0.6;" x="28.346457" xlink:href="#m9d5464ed3a" y="177.165354"/>
      </g>
     </g>
    </g>
    <g id="ytick_12">
     <g id="line2d_61">
      <g>
       <use style="stroke:#000000;stroke-width:0.6;" x="28.346457" xlink:href="#m9d5464ed3a" y="148.818898"/>
      </g>
     </g>
    </g>
    <g id="ytick_13">
     <g id="line2d_62">
      <g>
       <use style="stroke:#000000;stroke-width:0.6;" x="28.346457" xlink:href="#m9d5464ed3a" y="134.645669"/>
      </g>
     </g>
    </g>
    <g id="ytick_14">
     <g id="line2d_63">
      <g>
       <use style="stroke:#000000;stroke-width:0.6;" x="28.346457" xlink:href="#m9d5464ed3a" y="120.472441"/>
      </g>
     </g>
    </g>
    <g id="ytick_15">
     <g id="line2d_64">
      <g>
       <use style="stroke:#000000;stroke-width:0.6;" x="28.346457" xlink:href="#m9d5464ed3a" y="106.299213"/>
      </g>
     </g>
    </g>
    <g id="ytick_16">
     <g id="line2d_65">
      <g>
       <use style="stroke:#000000;stroke-width:0.6;" x="28.346457" xlink:href="#m9d5464ed3a" y="77.952756"/>
      </g>
     </g>
    </g>
    <g id="ytick_17">
     <g id="line2d_66">
      <g>
       <use style="stroke:#000000;stroke-width:0.6;" x="28.346457" xlink:href="#m9d5464ed3a" y="63.779528"/>
      </g>
     </g>
    </g>
    <g id="ytick_18">
     <g id="line2d_67">
      <g>
       <use style="stroke:#000000;stroke-width:0.6;" x="28.346457" xlink:href="#m9d5464ed3a" y="49.606299"/>
      </g>
     </g>
    </g>
    <g id="ytick_19">
     <g id="line2d_68">
      <g>
       <use style="stroke:#000000;stroke-width:0.6;" x="28.346457" xlink:href="#m9d5464ed3a" y="35.433071"/>
      </g>
     </g>
    </g>
   </g>
   <g id="line2d_69">
    <path clip-path="url(#p1267f0262f)" d="M 198.425197 138.945233 
L 199.999843 135.239895 
L 201.812598 131.544833 
L 203.866299 127.865292 
L 206.165197 124.204227 
L 208.714961 120.563516 
L 211.518425 116.949854 
L 214.579843 113.368065 
L 217.902047 109.824856 
L 221.489291 106.325532 
L 225.342992 102.878293 
L 229.465984 99.489888 
L 233.858268 96.169309 
L 238.519843 92.925145 
L 243.449291 89.766626 
L 248.64378 86.703408 
L 254.100472 83.744677 
L 259.815118 80.899984 
L 265.78063 78.179715 
L 271.988504 75.594124 
L 278.430236 73.15274 
L 285.095906 70.86499 
L 291.971339 68.740934 
L 299.045197 66.788867 
L 306.300472 65.017866 
L 313.721575 63.435637 
L 321.291496 62.049331 
L 328.991811 60.865449 
L 336.802677 59.889731 
L 344.702835 59.127041 
L 352.672441 58.581092 
L 360.688819 58.254808 
L 368.729291 58.149984 
L 376.771181 58.267305 
L 384.793228 58.606445 
L 392.772756 59.166012 
L 400.687087 59.943491 
L 408.514961 60.935399 
L 416.235118 62.137193 
L 423.829134 63.543761 
L 431.275748 65.14845 
L 438.557953 66.944379 
L 445.65874 68.923735 
L 452.56252 71.078097 
L 459.253701 73.398008 
L 465.720945 75.874503 
L 471.952913 78.49784 
L 477.939685 81.258001 
L 483.672756 84.144776 
L 489.145039 87.147852 
L 494.350866 90.256913 
L 499.285984 93.461749 
L 503.948976 96.753437 
L 508.337008 100.121548 
L 512.450079 103.557152 
L 516.289606 107.052197 
L 519.857008 110.598402 
L 523.153701 114.187051 
L 526.183937 117.812269 
L 528.951969 121.468547 
L 531.46063 125.148567 
L 533.714173 128.846832 
L 535.718268 132.560803 
L 537.477165 136.286501 
L 538.58126 138.941624 
L 538.58126 138.941624 
" style="fill:none;stroke:#ff0000;stroke-linecap:square;stroke-width:1.5;"/>
   </g>
   <g id="line2d_70">
    <path clip-path="url(#p1267f0262f)" d="M 198.425197 138.945233 
L 198.425197 181.464918 
" style="fill:none;stroke:#ff0000;stroke-linecap:square;stroke-width:1.5;"/>
   </g>
   <g id="line2d_71">
    <path clip-path="url(#p1267f0262f)" d="M 538.582677 138.941624 
L 538.582677 181.461309 
" style="fill:none;stroke:#ff0000;stroke-linecap:square;stroke-width:1.5;"/>
   </g>
   <g id="line2d_72">
    <path clip-path="url(#p1267f0262f)" d="M 198.425197 181.464918 
L 199.999843 177.75958 
L 201.812598 174.064518 
L 203.866299 170.384977 
L 206.165197 166.723912 
L 208.714961 163.083201 
L 211.518425 159.46954 
L 214.579843 155.88775 
L 217.902047 152.344541 
L 221.489291 148.845217 
L 225.342992 145.397978 
L 229.465984 142.009573 
L 233.858268 138.688994 
L 238.519843 135.44483 
L 243.449291 132.286311 
L 248.64378 129.223093 
L 254.100472 126.264362 
L 259.815118 123.419669 
L 265.78063 120.6994 
L 271.988504 118.113809 
L 278.430236 115.672425 
L 285.095906 113.384675 
L 291.971339 111.260619 
L 299.045197 109.308552 
L 306.300472 107.537551 
L 313.721575 105.955322 
L 321.291496 104.569016 
L 328.991811 103.385134 
L 336.802677 102.409416 
L 344.702835 101.646726 
L 352.672441 101.100777 
L 360.688819 100.774493 
L 368.729291 100.669669 
L 376.771181 100.78699 
L 384.793228 101.12613 
L 392.772756 101.685697 
L 400.687087 102.463176 
L 408.514961 103.455084 
L 416.235118 104.656878 
L 423.829134 106.063446 
L 431.275748 107.668135 
L 438.557953 109.464064 
L 445.65874 111.44342 
L 452.56252 113.597782 
L 459.253701 115.917693 
L 465.720945 118.394188 
L 471.952913 121.017525 
L 477.939685 123.777686 
L 483.672756 126.664461 
L 489.145039 129.667537 
L 494.350866 132.776598 
L 499.285984 135.981434 
L 503.948976 139.273122 
L 508.337008 142.641233 
L 512.450079 146.076838 
L 516.289606 149.571882 
L 519.857008 153.118087 
L 523.153701 156.706737 
L 526.183937 160.331955 
L 528.951969 163.988232 
L 531.46063 167.668252 
L 533.714173 171.366517 
L 535.718268 175.080488 
L 537.477165 178.806186 
L 538.58126 181.461309 
L 538.58126 181.461309 
" style="fill:none;stroke:#ff0000;stroke-linecap:square;stroke-width:1.5;"/>
   </g>
   <g id="patch_3">
    <path d="M 28.346457 297.637795 
L 28.346457 28.346457 
" style="fill:none;stroke:#000000;stroke-linecap:square;stroke-linejoin:miter;stroke-width:0.8;"/>
   </g>
   <g id="patch_4">
    <path d="M 708.661417 297.637795 
L 708.661417 28.346457 
" style="fill:none;stroke:#000000;stroke-linecap:square;stroke-linejoin:miter;stroke-width:0.8;"/>
   </g>
   <g id="patch_5">
    <path d="M 28.346457 297.637795 
L 708.661417 297.637795 
" style="fill:none;stroke:#000000;stroke-linecap:square;stroke-linejoin:miter;stroke-width:0.8;"/>
   </g>
   <g id="patch_6">
    <path d="M 28.346457 28.346457 
L 708.661417 28.346457 
" style="fill:none;stroke:#000000;stroke-linecap:square;stroke-linejoin:miter;stroke-width:0.8;"/>
   </g>
  </g>
 </g>
 <defs>
  <clipPath id="p1267f0262f">
   <rect height="269.291339" width="680.314961" x="28.346457" y="28.346457"/>
  </clipPath>
 </defs>
</svg>
