<?xml version="1.0" encoding="utf-8" standalone="no"?>
<!DOCTYPE svg PUBLIC "-//W3C//DTD SVG 1.1//EN"
  "http://www.w3.org/Graphics/SVG/1.1/DTD/svg11.dtd">
<!-- Created with matplotlib (https://matplotlib.org/) -->
<svg height="325.984252pt" version="1.1" viewBox="0 0 737.007874 325.984252" width="737.007874pt" xmlns="http://www.w3.org/2000/svg" xmlns:xlink="http://www.w3.org/1999/xlink">
 <defs>
  <style type="text/css">
*{stroke-linecap:butt;stroke-linejoin:round;}
  </style>
 </defs>
 <g id="figure_1">
  <g id="patch_1">
   <path d="M 0 325.984252 
L 737.007874 325.984252 
L 737.007874 0 
L 0 0 
z
" style="fill:none;"/>
  </g>
  <g id="axes_1">
   <g id="patch_2">
    <path d="M 28.346457 297.637795 
L 708.661417 297.637795 
L 708.661417 28.346457 
L 28.346457 28.346457 
z
" style="fill:none;"/>
   </g>
   <g id="matplotlib.axis_1">
    <g id="xtick_1">
     <g id="line2d_1">
      <defs>
       <path d="M 0 0 
L 0 3.5 
" id="m3b7646640e" style="stroke:#000000;stroke-width:0.8;"/>
      </defs>
      <g>
       <use style="stroke:#000000;stroke-width:0.8;" x="85.03937" xlink:href="#m3b7646640e" y="297.637795"/>
      </g>
     </g>
     <g id="text_1">
      <!-- −20 -->
      <defs>
       <path d="M 10.59375 35.5 
L 73.1875 35.5 
L 73.1875 27.203125 
L 10.59375 27.203125 
z
" id="DejaVuSans-8722"/>
       <path d="M 19.1875 8.296875 
L 53.609375 8.296875 
L 53.609375 0 
L 7.328125 0 
L 7.328125 8.296875 
Q 12.9375 14.109375 22.625 23.890625 
Q 32.328125 33.6875 34.8125 36.53125 
Q 39.546875 41.84375 41.421875 45.53125 
Q 43.3125 49.21875 43.3125 52.78125 
Q 43.3125 58.59375 39.234375 62.25 
Q 35.15625 65.921875 28.609375 65.921875 
Q 23.96875 65.921875 18.8125 64.3125 
Q 13.671875 62.703125 7.8125 59.421875 
L 7.8125 69.390625 
Q 13.765625 71.78125 18.9375 73 
Q 24.125 74.21875 28.421875 74.21875 
Q 39.75 74.21875 46.484375 68.546875 
Q 53.21875 62.890625 53.21875 53.421875 
Q 53.21875 48.921875 51.53125 44.890625 
Q 49.859375 40.875 45.40625 35.40625 
Q 44.1875 33.984375 37.640625 27.21875 
Q 31.109375 20.453125 19.1875 8.296875 
z
" id="DejaVuSans-50"/>
       <path d="M 31.78125 66.40625 
Q 24.171875 66.40625 20.328125 58.90625 
Q 16.5 51.421875 16.5 36.375 
Q 16.5 21.390625 20.328125 13.890625 
Q 24.171875 6.390625 31.78125 6.390625 
Q 39.453125 6.390625 43.28125 13.890625 
Q 47.125 21.390625 47.125 36.375 
Q 47.125 51.421875 43.28125 58.90625 
Q 39.453125 66.40625 31.78125 66.40625 
z
M 31.78125 74.21875 
Q 44.046875 74.21875 50.515625 64.515625 
Q 56.984375 54.828125 56.984375 36.375 
Q 56.984375 17.96875 50.515625 8.265625 
Q 44.046875 -1.421875 31.78125 -1.421875 
Q 19.53125 -1.421875 13.0625 8.265625 
Q 6.59375 17.96875 6.59375 36.375 
Q 6.59375 54.828125 13.0625 64.515625 
Q 19.53125 74.21875 31.78125 74.21875 
z
" id="DejaVuSans-48"/>
      </defs>
      <g transform="translate(74.487026 312.236233)scale(0.1 -0.1)">
       <use xlink:href="#DejaVuSans-8722"/>
       <use x="83.789062" xlink:href="#DejaVuSans-50"/>
       <use x="147.412109" xlink:href="#DejaVuSans-48"/>
      </g>
     </g>
    </g>
    <g id="xtick_2">
     <g id="line2d_2">
      <g>
       <use style="stroke:#000000;stroke-width:0.8;" x="155.905512" xlink:href="#m3b7646640e" y="297.637795"/>
      </g>
     </g>
     <g id="text_2">
      <!-- −15 -->
      <defs>
       <path d="M 12.40625 8.296875 
L 28.515625 8.296875 
L 28.515625 63.921875 
L 10.984375 60.40625 
L 10.984375 69.390625 
L 28.421875 72.90625 
L 38.28125 72.90625 
L 38.28125 8.296875 
L 54.390625 8.296875 
L 54.390625 0 
L 12.40625 0 
z
" id="DejaVuSans-49"/>
       <path d="M 10.796875 72.90625 
L 49.515625 72.90625 
L 49.515625 64.59375 
L 19.828125 64.59375 
L 19.828125 46.734375 
Q 21.96875 47.46875 24.109375 47.828125 
Q 26.265625 48.1875 28.421875 48.1875 
Q 40.625 48.1875 47.75 41.5 
Q 54.890625 34.8125 54.890625 23.390625 
Q 54.890625 11.625 47.5625 5.09375 
Q 40.234375 -1.421875 26.90625 -1.421875 
Q 22.3125 -1.421875 17.546875 -0.640625 
Q 12.796875 0.140625 7.71875 1.703125 
L 7.71875 11.625 
Q 12.109375 9.234375 16.796875 8.0625 
Q 21.484375 6.890625 26.703125 6.890625 
Q 35.15625 6.890625 40.078125 11.328125 
Q 45.015625 15.765625 45.015625 23.390625 
Q 45.015625 31 40.078125 35.4375 
Q 35.15625 39.890625 26.703125 39.890625 
Q 22.75 39.890625 18.8125 39.015625 
Q 14.890625 38.140625 10.796875 36.28125 
z
" id="DejaVuSans-53"/>
      </defs>
      <g transform="translate(145.353168 312.236233)scale(0.1 -0.1)">
       <use xlink:href="#DejaVuSans-8722"/>
       <use x="83.789062" xlink:href="#DejaVuSans-49"/>
       <use x="147.412109" xlink:href="#DejaVuSans-53"/>
      </g>
     </g>
    </g>
    <g id="xtick_3">
     <g id="line2d_3">
      <g>
       <use style="stroke:#000000;stroke-width:0.8;" x="226.771654" xlink:href="#m3b7646640e" y="297.637795"/>
      </g>
     </g>
     <g id="text_3">
      <!-- −10 -->
      <g transform="translate(216.21931 312.236233)scale(0.1 -0.1)">
       <use xlink:href="#DejaVuSans-8722"/>
       <use x="83.789062" xlink:href="#DejaVuSans-49"/>
       <use x="147.412109" xlink:href="#DejaVuSans-48"/>
      </g>
     </g>
    </g>
    <g id="xtick_4">
     <g id="line2d_4">
      <g>
       <use style="stroke:#000000;stroke-width:0.8;" x="297.637795" xlink:href="#m3b7646640e" y="297.637795"/>
      </g>
     </g>
     <g id="text_4">
      <!-- −5 -->
      <g transform="translate(290.266702 312.236233)scale(0.1 -0.1)">
       <use xlink:href="#DejaVuSans-8722"/>
       <use x="83.789062" xlink:href="#DejaVuSans-53"/>
      </g>
     </g>
    </g>
    <g id="xtick_5">
     <g id="line2d_5">
      <g>
       <use style="stroke:#000000;stroke-width:0.8;" x="368.503937" xlink:href="#m3b7646640e" y="297.637795"/>
      </g>
     </g>
     <g id="text_5">
      <!-- 0 -->
      <g transform="translate(365.322687 312.236233)scale(0.1 -0.1)">
       <use xlink:href="#DejaVuSans-48"/>
      </g>
     </g>
    </g>
    <g id="xtick_6">
     <g id="line2d_6">
      <g>
       <use style="stroke:#000000;stroke-width:0.8;" x="439.370079" xlink:href="#m3b7646640e" y="297.637795"/>
      </g>
     </g>
     <g id="text_6">
      <!-- 5 -->
      <g transform="translate(436.188829 312.236233)scale(0.1 -0.1)">
       <use xlink:href="#DejaVuSans-53"/>
      </g>
     </g>
    </g>
    <g id="xtick_7">
     <g id="line2d_7">
      <g>
       <use style="stroke:#000000;stroke-width:0.8;" x="510.23622" xlink:href="#m3b7646640e" y="297.637795"/>
      </g>
     </g>
     <g id="text_7">
      <!-- 10 -->
      <g transform="translate(503.87372 312.236233)scale(0.1 -0.1)">
       <use xlink:href="#DejaVuSans-49"/>
       <use x="63.623047" xlink:href="#DejaVuSans-48"/>
      </g>
     </g>
    </g>
    <g id="xtick_8">
     <g id="line2d_8">
      <g>
       <use style="stroke:#000000;stroke-width:0.8;" x="581.102362" xlink:href="#m3b7646640e" y="297.637795"/>
      </g>
     </g>
     <g id="text_8">
      <!-- 15 -->
      <g transform="translate(574.739862 312.236233)scale(0.1 -0.1)">
       <use xlink:href="#DejaVuSans-49"/>
       <use x="63.623047" xlink:href="#DejaVuSans-53"/>
      </g>
     </g>
    </g>
    <g id="xtick_9">
     <g id="line2d_9">
      <g>
       <use style="stroke:#000000;stroke-width:0.8;" x="651.968504" xlink:href="#m3b7646640e" y="297.637795"/>
      </g>
     </g>
     <g id="text_9">
      <!-- 20 -->
      <g transform="translate(645.606004 312.236233)scale(0.1 -0.1)">
       <use xlink:href="#DejaVuSans-50"/>
       <use x="63.623047" xlink:href="#DejaVuSans-48"/>
      </g>
     </g>
    </g>
    <g id="xtick_10">
     <g id="line2d_10">
      <defs>
       <path d="M 0 0 
L 0 2 
" id="mba3499b913" style="stroke:#000000;stroke-width:0.6;"/>
      </defs>
      <g>
       <use style="stroke:#000000;stroke-width:0.6;" x="28.346457" xlink:href="#mba3499b913" y="297.637795"/>
      </g>
     </g>
    </g>
    <g id="xtick_11">
     <g id="line2d_11">
      <g>
       <use style="stroke:#000000;stroke-width:0.6;" x="42.519685" xlink:href="#mba3499b913" y="297.637795"/>
      </g>
     </g>
    </g>
    <g id="xtick_12">
     <g id="line2d_12">
      <g>
       <use style="stroke:#000000;stroke-width:0.6;" x="56.692913" xlink:href="#mba3499b913" y="297.637795"/>
      </g>
     </g>
    </g>
    <g id="xtick_13">
     <g id="line2d_13">
      <g>
       <use style="stroke:#000000;stroke-width:0.6;" x="70.866142" xlink:href="#mba3499b913" y="297.637795"/>
      </g>
     </g>
    </g>
    <g id="xtick_14">
     <g id="line2d_14">
      <g>
       <use style="stroke:#000000;stroke-width:0.6;" x="99.212598" xlink:href="#mba3499b913" y="297.637795"/>
      </g>
     </g>
    </g>
    <g id="xtick_15">
     <g id="line2d_15">
      <g>
       <use style="stroke:#000000;stroke-width:0.6;" x="113.385827" xlink:href="#mba3499b913" y="297.637795"/>
      </g>
     </g>
    </g>
    <g id="xtick_16">
     <g id="line2d_16">
      <g>
       <use style="stroke:#000000;stroke-width:0.6;" x="127.559055" xlink:href="#mba3499b913" y="297.637795"/>
      </g>
     </g>
    </g>
    <g id="xtick_17">
     <g id="line2d_17">
      <g>
       <use style="stroke:#000000;stroke-width:0.6;" x="141.732283" xlink:href="#mba3499b913" y="297.637795"/>
      </g>
     </g>
    </g>
    <g id="xtick_18">
     <g id="line2d_18">
      <g>
       <use style="stroke:#000000;stroke-width:0.6;" x="170.07874" xlink:href="#mba3499b913" y="297.637795"/>
      </g>
     </g>
    </g>
    <g id="xtick_19">
     <g id="line2d_19">
      <g>
       <use style="stroke:#000000;stroke-width:0.6;" x="184.251969" xlink:href="#mba3499b913" y="297.637795"/>
      </g>
     </g>
    </g>
    <g id="xtick_20">
     <g id="line2d_20">
      <g>
       <use style="stroke:#000000;stroke-width:0.6;" x="198.425197" xlink:href="#mba3499b913" y="297.637795"/>
      </g>
     </g>
    </g>
    <g id="xtick_21">
     <g id="line2d_21">
      <g>
       <use style="stroke:#000000;stroke-width:0.6;" x="212.598425" xlink:href="#mba3499b913" y="297.637795"/>
      </g>
     </g>
    </g>
    <g id="xtick_22">
     <g id="line2d_22">
      <g>
       <use style="stroke:#000000;stroke-width:0.6;" x="240.944882" xlink:href="#mba3499b913" y="297.637795"/>
      </g>
     </g>
    </g>
    <g id="xtick_23">
     <g id="line2d_23">
      <g>
       <use style="stroke:#000000;stroke-width:0.6;" x="255.11811" xlink:href="#mba3499b913" y="297.637795"/>
      </g>
     </g>
    </g>
    <g id="xtick_24">
     <g id="line2d_24">
      <g>
       <use style="stroke:#000000;stroke-width:0.6;" x="269.291339" xlink:href="#mba3499b913" y="297.637795"/>
      </g>
     </g>
    </g>
    <g id="xtick_25">
     <g id="line2d_25">
      <g>
       <use style="stroke:#000000;stroke-width:0.6;" x="283.464567" xlink:href="#mba3499b913" y="297.637795"/>
      </g>
     </g>
    </g>
    <g id="xtick_26">
     <g id="line2d_26">
      <g>
       <use style="stroke:#000000;stroke-width:0.6;" x="311.811024" xlink:href="#mba3499b913" y="297.637795"/>
      </g>
     </g>
    </g>
    <g id="xtick_27">
     <g id="line2d_27">
      <g>
       <use style="stroke:#000000;stroke-width:0.6;" x="325.984252" xlink:href="#mba3499b913" y="297.637795"/>
      </g>
     </g>
    </g>
    <g id="xtick_28">
     <g id="line2d_28">
      <g>
       <use style="stroke:#000000;stroke-width:0.6;" x="340.15748" xlink:href="#mba3499b913" y="297.637795"/>
      </g>
     </g>
    </g>
    <g id="xtick_29">
     <g id="line2d_29">
      <g>
       <use style="stroke:#000000;stroke-width:0.6;" x="354.330709" xlink:href="#mba3499b913" y="297.637795"/>
      </g>
     </g>
    </g>
    <g id="xtick_30">
     <g id="line2d_30">
      <g>
       <use style="stroke:#000000;stroke-width:0.6;" x="382.677165" xlink:href="#mba3499b913" y="297.637795"/>
      </g>
     </g>
    </g>
    <g id="xtick_31">
     <g id="line2d_31">
      <g>
       <use style="stroke:#000000;stroke-width:0.6;" x="396.850394" xlink:href="#mba3499b913" y="297.637795"/>
      </g>
     </g>
    </g>
    <g id="xtick_32">
     <g id="line2d_32">
      <g>
       <use style="stroke:#000000;stroke-width:0.6;" x="411.023622" xlink:href="#mba3499b913" y="297.637795"/>
      </g>
     </g>
    </g>
    <g id="xtick_33">
     <g id="line2d_33">
      <g>
       <use style="stroke:#000000;stroke-width:0.6;" x="425.19685" xlink:href="#mba3499b913" y="297.637795"/>
      </g>
     </g>
    </g>
    <g id="xtick_34">
     <g id="line2d_34">
      <g>
       <use style="stroke:#000000;stroke-width:0.6;" x="453.543307" xlink:href="#mba3499b913" y="297.637795"/>
      </g>
     </g>
    </g>
    <g id="xtick_35">
     <g id="line2d_35">
      <g>
       <use style="stroke:#000000;stroke-width:0.6;" x="467.716535" xlink:href="#mba3499b913" y="297.637795"/>
      </g>
     </g>
    </g>
    <g id="xtick_36">
     <g id="line2d_36">
      <g>
       <use style="stroke:#000000;stroke-width:0.6;" x="481.889764" xlink:href="#mba3499b913" y="297.637795"/>
      </g>
     </g>
    </g>
    <g id="xtick_37">
     <g id="line2d_37">
      <g>
       <use style="stroke:#000000;stroke-width:0.6;" x="496.062992" xlink:href="#mba3499b913" y="297.637795"/>
      </g>
     </g>
    </g>
    <g id="xtick_38">
     <g id="line2d_38">
      <g>
       <use style="stroke:#000000;stroke-width:0.6;" x="524.409449" xlink:href="#mba3499b913" y="297.637795"/>
      </g>
     </g>
    </g>
    <g id="xtick_39">
     <g id="line2d_39">
      <g>
       <use style="stroke:#000000;stroke-width:0.6;" x="538.582677" xlink:href="#mba3499b913" y="297.637795"/>
      </g>
     </g>
    </g>
    <g id="xtick_40">
     <g id="line2d_40">
      <g>
       <use style="stroke:#000000;stroke-width:0.6;" x="552.755906" xlink:href="#mba3499b913" y="297.637795"/>
      </g>
     </g>
    </g>
    <g id="xtick_41">
     <g id="line2d_41">
      <g>
       <use style="stroke:#000000;stroke-width:0.6;" x="566.929134" xlink:href="#mba3499b913" y="297.637795"/>
      </g>
     </g>
    </g>
    <g id="xtick_42">
     <g id="line2d_42">
      <g>
       <use style="stroke:#000000;stroke-width:0.6;" x="595.275591" xlink:href="#mba3499b913" y="297.637795"/>
      </g>
     </g>
    </g>
    <g id="xtick_43">
     <g id="line2d_43">
      <g>
       <use style="stroke:#000000;stroke-width:0.6;" x="609.448819" xlink:href="#mba3499b913" y="297.637795"/>
      </g>
     </g>
    </g>
    <g id="xtick_44">
     <g id="line2d_44">
      <g>
       <use style="stroke:#000000;stroke-width:0.6;" x="623.622047" xlink:href="#mba3499b913" y="297.637795"/>
      </g>
     </g>
    </g>
    <g id="xtick_45">
     <g id="line2d_45">
      <g>
       <use style="stroke:#000000;stroke-width:0.6;" x="637.795276" xlink:href="#mba3499b913" y="297.637795"/>
      </g>
     </g>
    </g>
    <g id="xtick_46">
     <g id="line2d_46">
      <g>
       <use style="stroke:#000000;stroke-width:0.6;" x="666.141732" xlink:href="#mba3499b913" y="297.637795"/>
      </g>
     </g>
    </g>
    <g id="xtick_47">
     <g id="line2d_47">
      <g>
       <use style="stroke:#000000;stroke-width:0.6;" x="680.314961" xlink:href="#mba3499b913" y="297.637795"/>
      </g>
     </g>
    </g>
    <g id="xtick_48">
     <g id="line2d_48">
      <g>
       <use style="stroke:#000000;stroke-width:0.6;" x="694.488189" xlink:href="#mba3499b913" y="297.637795"/>
      </g>
     </g>
    </g>
    <g id="xtick_49">
     <g id="line2d_49">
      <g>
       <use style="stroke:#000000;stroke-width:0.6;" x="708.661417" xlink:href="#mba3499b913" y="297.637795"/>
      </g>
     </g>
    </g>
   </g>
   <g id="matplotlib.axis_2">
    <g id="ytick_1">
     <g id="line2d_50">
      <defs>
       <path d="M 0 0 
L -3.5 0 
" id="mab37f00043" style="stroke:#000000;stroke-width:0.8;"/>
      </defs>
      <g>
       <use style="stroke:#000000;stroke-width:0.8;" x="28.346457" xlink:href="#mab37f00043" y="233.858268"/>
      </g>
     </g>
     <g id="text_10">
      <!-- −5 -->
      <g transform="translate(6.604269 237.657486)scale(0.1 -0.1)">
       <use xlink:href="#DejaVuSans-8722"/>
       <use x="83.789062" xlink:href="#DejaVuSans-53"/>
      </g>
     </g>
    </g>
    <g id="ytick_2">
     <g id="line2d_51">
      <g>
       <use style="stroke:#000000;stroke-width:0.8;" x="28.346457" xlink:href="#mab37f00043" y="162.992126"/>
      </g>
     </g>
     <g id="text_11">
      <!-- 0 -->
      <g transform="translate(14.983957 166.791345)scale(0.1 -0.1)">
       <use xlink:href="#DejaVuSans-48"/>
      </g>
     </g>
    </g>
    <g id="ytick_3">
     <g id="line2d_52">
      <g>
       <use style="stroke:#000000;stroke-width:0.8;" x="28.346457" xlink:href="#mab37f00043" y="92.125984"/>
      </g>
     </g>
     <g id="text_12">
      <!-- 5 -->
      <g transform="translate(14.983957 95.925203)scale(0.1 -0.1)">
       <use xlink:href="#DejaVuSans-53"/>
      </g>
     </g>
    </g>
    <g id="ytick_4">
     <g id="line2d_53">
      <defs>
       <path d="M 0 0 
L -2 0 
" id="m71e5ad94f3" style="stroke:#000000;stroke-width:0.6;"/>
      </defs>
      <g>
       <use style="stroke:#000000;stroke-width:0.6;" x="28.346457" xlink:href="#m71e5ad94f3" y="290.551181"/>
      </g>
     </g>
    </g>
    <g id="ytick_5">
     <g id="line2d_54">
      <g>
       <use style="stroke:#000000;stroke-width:0.6;" x="28.346457" xlink:href="#m71e5ad94f3" y="276.377953"/>
      </g>
     </g>
    </g>
    <g id="ytick_6">
     <g id="line2d_55">
      <g>
       <use style="stroke:#000000;stroke-width:0.6;" x="28.346457" xlink:href="#m71e5ad94f3" y="262.204724"/>
      </g>
     </g>
    </g>
    <g id="ytick_7">
     <g id="line2d_56">
      <g>
       <use style="stroke:#000000;stroke-width:0.6;" x="28.346457" xlink:href="#m71e5ad94f3" y="248.031496"/>
      </g>
     </g>
    </g>
    <g id="ytick_8">
     <g id="line2d_57">
      <g>
       <use style="stroke:#000000;stroke-width:0.6;" x="28.346457" xlink:href="#m71e5ad94f3" y="219.685039"/>
      </g>
     </g>
    </g>
    <g id="ytick_9">
     <g id="line2d_58">
      <g>
       <use style="stroke:#000000;stroke-width:0.6;" x="28.346457" xlink:href="#m71e5ad94f3" y="205.511811"/>
      </g>
     </g>
    </g>
    <g id="ytick_10">
     <g id="line2d_59">
      <g>
       <use style="stroke:#000000;stroke-width:0.6;" x="28.346457" xlink:href="#m71e5ad94f3" y="191.338583"/>
      </g>
     </g>
    </g>
    <g id="ytick_11">
     <g id="line2d_60">
      <g>
       <use style="stroke:#000000;stroke-width:0.6;" x="28.346457" xlink:href="#m71e5ad94f3" y="177.165354"/>
      </g>
     </g>
    </g>
    <g id="ytick_12">
     <g id="line2d_61">
      <g>
       <use style="stroke:#000000;stroke-width:0.6;" x="28.346457" xlink:href="#m71e5ad94f3" y="148.818898"/>
      </g>
     </g>
    </g>
    <g id="ytick_13">
     <g id="line2d_62">
      <g>
       <use style="stroke:#000000;stroke-width:0.6;" x="28.346457" xlink:href="#m71e5ad94f3" y="134.645669"/>
      </g>
     </g>
    </g>
    <g id="ytick_14">
     <g id="line2d_63">
      <g>
       <use style="stroke:#000000;stroke-width:0.6;" x="28.346457" xlink:href="#m71e5ad94f3" y="120.472441"/>
      </g>
     </g>
    </g>
    <g id="ytick_15">
     <g id="line2d_64">
      <g>
       <use style="stroke:#000000;stroke-width:0.6;" x="28.346457" xlink:href="#m71e5ad94f3" y="106.299213"/>
      </g>
     </g>
    </g>
    <g id="ytick_16">
     <g id="line2d_65">
      <g>
       <use style="stroke:#000000;stroke-width:0.6;" x="28.346457" xlink:href="#m71e5ad94f3" y="77.952756"/>
      </g>
     </g>
    </g>
    <g id="ytick_17">
     <g id="line2d_66">
      <g>
       <use style="stroke:#000000;stroke-width:0.6;" x="28.346457" xlink:href="#m71e5ad94f3" y="63.779528"/>
      </g>
     </g>
    </g>
    <g id="ytick_18">
     <g id="line2d_67">
      <g>
       <use style="stroke:#000000;stroke-width:0.6;" x="28.346457" xlink:href="#m71e5ad94f3" y="49.606299"/>
      </g>
     </g>
    </g>
    <g id="ytick_19">
     <g id="line2d_68">
      <g>
       <use style="stroke:#000000;stroke-width:0.6;" x="28.346457" xlink:href="#m71e5ad94f3" y="35.433071"/>
      </g>
     </g>
    </g>
   </g>
   <g id="line2d_69">
    <path clip-path="url(#pf34cbed689)" d="M 212.598425 142.718494 
L 213.997323 139.173128 
L 215.631496 135.639311 
L 217.505197 132.119041 
L 219.622677 128.615625 
L 221.989606 125.131213 
L 224.608819 121.672873 
L 227.484567 118.245686 
L 230.621102 114.855165 
L 234.02126 111.508557 
L 237.687874 108.21305 
L 241.62378 104.97589 
L 245.828976 101.806524 
L 250.303465 98.713951 
L 255.045827 95.707781 
L 260.053228 92.798036 
L 265.321417 89.994984 
L 270.844724 87.309006 
L 276.61748 84.749894 
L 282.629764 82.328653 
L 288.871654 80.05539 
L 295.331811 77.939949 
L 301.99748 75.991831 
L 308.851654 74.2208 
L 315.880157 72.634857 
L 323.06315 71.242363 
L 330.383622 70.050029 
L 337.820315 69.064303 
L 345.351969 68.29046 
L 352.955906 67.732777 
L 360.609449 67.394353 
L 368.289921 67.277164 
L 375.974646 67.382094 
L 383.639528 67.708867 
L 391.260472 68.255961 
L 398.814803 69.020742 
L 406.279843 69.999419 
L 413.634331 71.187227 
L 420.857008 72.578263 
L 427.928031 74.165721 
L 434.828976 75.941988 
L 441.542835 77.898734 
L 448.054016 80.026995 
L 454.348346 82.317248 
L 460.411654 84.758884 
L 466.234016 87.341945 
L 471.805512 90.055627 
L 477.119055 92.889611 
L 482.167559 95.832766 
L 486.946772 98.87476 
L 491.453858 102.005533 
L 495.685984 105.214344 
L 499.64315 108.491916 
L 503.326772 111.829839 
L 506.73685 115.217984 
L 509.877638 118.650023 
L 512.751969 122.118267 
L 515.362677 125.61467 
L 517.715433 129.134999 
L 519.814488 132.673607 
L 521.664094 136.225015 
L 523.269921 139.787237 
L 524.408031 142.714571 
L 524.408031 142.714571 
" style="fill:none;stroke:#ff0000;stroke-linecap:square;stroke-width:1.5;"/>
   </g>
   <g id="line2d_70">
    <path clip-path="url(#pf34cbed689)" d="M 212.598425 142.718494 
L 212.598425 185.23818 
" style="fill:none;stroke:#ff0000;stroke-linecap:square;stroke-width:1.5;"/>
   </g>
   <g id="line2d_71">
    <path clip-path="url(#pf34cbed689)" d="M 524.409449 142.714571 
L 524.409449 185.234256 
" style="fill:none;stroke:#ff0000;stroke-linecap:square;stroke-width:1.5;"/>
   </g>
   <g id="line2d_72">
    <path clip-path="url(#pf34cbed689)" d="M 212.598425 185.23818 
L 213.997323 181.692813 
L 215.631496 178.158996 
L 217.505197 174.638726 
L 219.622677 171.13531 
L 221.989606 167.650898 
L 224.608819 164.192558 
L 227.484567 160.765372 
L 230.621102 157.37485 
L 234.02126 154.028242 
L 237.687874 150.732735 
L 241.62378 147.495575 
L 245.828976 144.326209 
L 250.303465 141.233636 
L 255.045827 138.227466 
L 260.053228 135.317722 
L 265.321417 132.514669 
L 270.844724 129.828691 
L 276.61748 127.269579 
L 282.629764 124.848338 
L 288.871654 122.575075 
L 295.331811 120.459634 
L 301.99748 118.511516 
L 308.851654 116.740485 
L 315.880157 115.154542 
L 323.06315 113.762048 
L 330.383622 112.569714 
L 337.820315 111.583988 
L 345.351969 110.810145 
L 352.955906 110.252462 
L 360.609449 109.914038 
L 368.289921 109.796849 
L 375.974646 109.901779 
L 383.639528 110.228552 
L 391.260472 110.775646 
L 398.814803 111.540427 
L 406.279843 112.519104 
L 413.634331 113.706912 
L 420.857008 115.097948 
L 427.928031 116.685406 
L 434.828976 118.461673 
L 441.542835 120.418419 
L 448.054016 122.54668 
L 454.348346 124.836933 
L 460.411654 127.278569 
L 466.234016 129.86163 
L 471.805512 132.575312 
L 477.119055 135.409296 
L 482.167559 138.352451 
L 486.946772 141.394445 
L 491.453858 144.525218 
L 495.685984 147.734029 
L 499.64315 151.011601 
L 503.326772 154.349524 
L 506.73685 157.737669 
L 509.877638 161.169708 
L 512.751969 164.637952 
L 515.362677 168.134355 
L 517.715433 171.654684 
L 519.814488 175.193292 
L 521.664094 178.7447 
L 523.269921 182.306922 
L 524.408031 185.234256 
L 524.408031 185.234256 
" style="fill:none;stroke:#ff0000;stroke-linecap:square;stroke-width:1.5;"/>
   </g>
   <g id="patch_3">
    <path d="M 28.346457 297.637795 
L 28.346457 28.346457 
" style="fill:none;stroke:#000000;stroke-linecap:square;stroke-linejoin:miter;stroke-width:0.8;"/>
   </g>
   <g id="patch_4">
    <path d="M 708.661417 297.637795 
L 708.661417 28.346457 
" style="fill:none;stroke:#000000;stroke-linecap:square;stroke-linejoin:miter;stroke-width:0.8;"/>
   </g>
   <g id="patch_5">
    <path d="M 28.346457 297.637795 
L 708.661417 297.637795 
" style="fill:none;stroke:#000000;stroke-linecap:square;stroke-linejoin:miter;stroke-width:0.8;"/>
   </g>
   <g id="patch_6">
    <path d="M 28.346457 28.346457 
L 708.661417 28.346457 
" style="fill:none;stroke:#000000;stroke-linecap:square;stroke-linejoin:miter;stroke-width:0.8;"/>
   </g>
  </g>
 </g>
 <defs>
  <clipPath id="pf34cbed689">
   <rect height="269.291339" width="680.314961" x="28.346457" y="28.346457"/>
  </clipPath>
 </defs>
</svg>
