<?xml version="1.0" encoding="utf-8" standalone="no"?>
<!DOCTYPE svg PUBLIC "-//W3C//DTD SVG 1.1//EN"
  "http://www.w3.org/Graphics/SVG/1.1/DTD/svg11.dtd">
<!-- Created with matplotlib (https://matplotlib.org/) -->
<svg height="325.984252pt" version="1.1" viewBox="0 0 737.007874 325.984252" width="737.007874pt" xmlns="http://www.w3.org/2000/svg" xmlns:xlink="http://www.w3.org/1999/xlink">
 <defs>
  <style type="text/css">
*{stroke-linecap:butt;stroke-linejoin:round;}
  </style>
 </defs>
 <g id="figure_1">
  <g id="patch_1">
   <path d="M 0 325.984252 
L 737.007874 325.984252 
L 737.007874 0 
L 0 0 
z
" style="fill:none;"/>
  </g>
  <g id="axes_1">
   <g id="patch_2">
    <path d="M 28.346457 297.637795 
L 708.661417 297.637795 
L 708.661417 28.346457 
L 28.346457 28.346457 
z
" style="fill:none;"/>
   </g>
   <g id="matplotlib.axis_1">
    <g id="xtick_1">
     <g id="line2d_1">
      <defs>
       <path d="M 0 0 
L 0 3.5 
" id="mb164f7879d" style="stroke:#000000;stroke-width:0.8;"/>
      </defs>
      <g>
       <use style="stroke:#000000;stroke-width:0.8;" x="85.03937" xlink:href="#mb164f7879d" y="297.637795"/>
      </g>
     </g>
     <g id="text_1">
      <!-- −20 -->
      <defs>
       <path d="M 10.59375 35.5 
L 73.1875 35.5 
L 73.1875 27.203125 
L 10.59375 27.203125 
z
" id="DejaVuSans-8722"/>
       <path d="M 19.1875 8.296875 
L 53.609375 8.296875 
L 53.609375 0 
L 7.328125 0 
L 7.328125 8.296875 
Q 12.9375 14.109375 22.625 23.890625 
Q 32.328125 33.6875 34.8125 36.53125 
Q 39.546875 41.84375 41.421875 45.53125 
Q 43.3125 49.21875 43.3125 52.78125 
Q 43.3125 58.59375 39.234375 62.25 
Q 35.15625 65.921875 28.609375 65.921875 
Q 23.96875 65.921875 18.8125 64.3125 
Q 13.671875 62.703125 7.8125 59.421875 
L 7.8125 69.390625 
Q 13.765625 71.78125 18.9375 73 
Q 24.125 74.21875 28.421875 74.21875 
Q 39.75 74.21875 46.484375 68.546875 
Q 53.21875 62.890625 53.21875 53.421875 
Q 53.21875 48.921875 51.53125 44.890625 
Q 49.859375 40.875 45.40625 35.40625 
Q 44.1875 33.984375 37.640625 27.21875 
Q 31.109375 20.453125 19.1875 8.296875 
z
" id="DejaVuSans-50"/>
       <path d="M 31.78125 66.40625 
Q 24.171875 66.40625 20.328125 58.90625 
Q 16.5 51.421875 16.5 36.375 
Q 16.5 21.390625 20.328125 13.890625 
Q 24.171875 6.390625 31.78125 6.390625 
Q 39.453125 6.390625 43.28125 13.890625 
Q 47.125 21.390625 47.125 36.375 
Q 47.125 51.421875 43.28125 58.90625 
Q 39.453125 66.40625 31.78125 66.40625 
z
M 31.78125 74.21875 
Q 44.046875 74.21875 50.515625 64.515625 
Q 56.984375 54.828125 56.984375 36.375 
Q 56.984375 17.96875 50.515625 8.265625 
Q 44.046875 -1.421875 31.78125 -1.421875 
Q 19.53125 -1.421875 13.0625 8.265625 
Q 6.59375 17.96875 6.59375 36.375 
Q 6.59375 54.828125 13.0625 64.515625 
Q 19.53125 74.21875 31.78125 74.21875 
z
" id="DejaVuSans-48"/>
      </defs>
      <g transform="translate(74.487026 312.236233)scale(0.1 -0.1)">
       <use xlink:href="#DejaVuSans-8722"/>
       <use x="83.789062" xlink:href="#DejaVuSans-50"/>
       <use x="147.412109" xlink:href="#DejaVuSans-48"/>
      </g>
     </g>
    </g>
    <g id="xtick_2">
     <g id="line2d_2">
      <g>
       <use style="stroke:#000000;stroke-width:0.8;" x="155.905512" xlink:href="#mb164f7879d" y="297.637795"/>
      </g>
     </g>
     <g id="text_2">
      <!-- −15 -->
      <defs>
       <path d="M 12.40625 8.296875 
L 28.515625 8.296875 
L 28.515625 63.921875 
L 10.984375 60.40625 
L 10.984375 69.390625 
L 28.421875 72.90625 
L 38.28125 72.90625 
L 38.28125 8.296875 
L 54.390625 8.296875 
L 54.390625 0 
L 12.40625 0 
z
" id="DejaVuSans-49"/>
       <path d="M 10.796875 72.90625 
L 49.515625 72.90625 
L 49.515625 64.59375 
L 19.828125 64.59375 
L 19.828125 46.734375 
Q 21.96875 47.46875 24.109375 47.828125 
Q 26.265625 48.1875 28.421875 48.1875 
Q 40.625 48.1875 47.75 41.5 
Q 54.890625 34.8125 54.890625 23.390625 
Q 54.890625 11.625 47.5625 5.09375 
Q 40.234375 -1.421875 26.90625 -1.421875 
Q 22.3125 -1.421875 17.546875 -0.640625 
Q 12.796875 0.140625 7.71875 1.703125 
L 7.71875 11.625 
Q 12.109375 9.234375 16.796875 8.0625 
Q 21.484375 6.890625 26.703125 6.890625 
Q 35.15625 6.890625 40.078125 11.328125 
Q 45.015625 15.765625 45.015625 23.390625 
Q 45.015625 31 40.078125 35.4375 
Q 35.15625 39.890625 26.703125 39.890625 
Q 22.75 39.890625 18.8125 39.015625 
Q 14.890625 38.140625 10.796875 36.28125 
z
" id="DejaVuSans-53"/>
      </defs>
      <g transform="translate(145.353168 312.236233)scale(0.1 -0.1)">
       <use xlink:href="#DejaVuSans-8722"/>
       <use x="83.789062" xlink:href="#DejaVuSans-49"/>
       <use x="147.412109" xlink:href="#DejaVuSans-53"/>
      </g>
     </g>
    </g>
    <g id="xtick_3">
     <g id="line2d_3">
      <g>
       <use style="stroke:#000000;stroke-width:0.8;" x="226.771654" xlink:href="#mb164f7879d" y="297.637795"/>
      </g>
     </g>
     <g id="text_3">
      <!-- −10 -->
      <g transform="translate(216.21931 312.236233)scale(0.1 -0.1)">
       <use xlink:href="#DejaVuSans-8722"/>
       <use x="83.789062" xlink:href="#DejaVuSans-49"/>
       <use x="147.412109" xlink:href="#DejaVuSans-48"/>
      </g>
     </g>
    </g>
    <g id="xtick_4">
     <g id="line2d_4">
      <g>
       <use style="stroke:#000000;stroke-width:0.8;" x="297.637795" xlink:href="#mb164f7879d" y="297.637795"/>
      </g>
     </g>
     <g id="text_4">
      <!-- −5 -->
      <g transform="translate(290.266702 312.236233)scale(0.1 -0.1)">
       <use xlink:href="#DejaVuSans-8722"/>
       <use x="83.789062" xlink:href="#DejaVuSans-53"/>
      </g>
     </g>
    </g>
    <g id="xtick_5">
     <g id="line2d_5">
      <g>
       <use style="stroke:#000000;stroke-width:0.8;" x="368.503937" xlink:href="#mb164f7879d" y="297.637795"/>
      </g>
     </g>
     <g id="text_5">
      <!-- 0 -->
      <g transform="translate(365.322687 312.236233)scale(0.1 -0.1)">
       <use xlink:href="#DejaVuSans-48"/>
      </g>
     </g>
    </g>
    <g id="xtick_6">
     <g id="line2d_6">
      <g>
       <use style="stroke:#000000;stroke-width:0.8;" x="439.370079" xlink:href="#mb164f7879d" y="297.637795"/>
      </g>
     </g>
     <g id="text_6">
      <!-- 5 -->
      <g transform="translate(436.188829 312.236233)scale(0.1 -0.1)">
       <use xlink:href="#DejaVuSans-53"/>
      </g>
     </g>
    </g>
    <g id="xtick_7">
     <g id="line2d_7">
      <g>
       <use style="stroke:#000000;stroke-width:0.8;" x="510.23622" xlink:href="#mb164f7879d" y="297.637795"/>
      </g>
     </g>
     <g id="text_7">
      <!-- 10 -->
      <g transform="translate(503.87372 312.236233)scale(0.1 -0.1)">
       <use xlink:href="#DejaVuSans-49"/>
       <use x="63.623047" xlink:href="#DejaVuSans-48"/>
      </g>
     </g>
    </g>
    <g id="xtick_8">
     <g id="line2d_8">
      <g>
       <use style="stroke:#000000;stroke-width:0.8;" x="581.102362" xlink:href="#mb164f7879d" y="297.637795"/>
      </g>
     </g>
     <g id="text_8">
      <!-- 15 -->
      <g transform="translate(574.739862 312.236233)scale(0.1 -0.1)">
       <use xlink:href="#DejaVuSans-49"/>
       <use x="63.623047" xlink:href="#DejaVuSans-53"/>
      </g>
     </g>
    </g>
    <g id="xtick_9">
     <g id="line2d_9">
      <g>
       <use style="stroke:#000000;stroke-width:0.8;" x="651.968504" xlink:href="#mb164f7879d" y="297.637795"/>
      </g>
     </g>
     <g id="text_9">
      <!-- 20 -->
      <g transform="translate(645.606004 312.236233)scale(0.1 -0.1)">
       <use xlink:href="#DejaVuSans-50"/>
       <use x="63.623047" xlink:href="#DejaVuSans-48"/>
      </g>
     </g>
    </g>
    <g id="xtick_10">
     <g id="line2d_10">
      <defs>
       <path d="M 0 0 
L 0 2 
" id="m3d643731cb" style="stroke:#000000;stroke-width:0.6;"/>
      </defs>
      <g>
       <use style="stroke:#000000;stroke-width:0.6;" x="28.346457" xlink:href="#m3d643731cb" y="297.637795"/>
      </g>
     </g>
    </g>
    <g id="xtick_11">
     <g id="line2d_11">
      <g>
       <use style="stroke:#000000;stroke-width:0.6;" x="42.519685" xlink:href="#m3d643731cb" y="297.637795"/>
      </g>
     </g>
    </g>
    <g id="xtick_12">
     <g id="line2d_12">
      <g>
       <use style="stroke:#000000;stroke-width:0.6;" x="56.692913" xlink:href="#m3d643731cb" y="297.637795"/>
      </g>
     </g>
    </g>
    <g id="xtick_13">
     <g id="line2d_13">
      <g>
       <use style="stroke:#000000;stroke-width:0.6;" x="70.866142" xlink:href="#m3d643731cb" y="297.637795"/>
      </g>
     </g>
    </g>
    <g id="xtick_14">
     <g id="line2d_14">
      <g>
       <use style="stroke:#000000;stroke-width:0.6;" x="99.212598" xlink:href="#m3d643731cb" y="297.637795"/>
      </g>
     </g>
    </g>
    <g id="xtick_15">
     <g id="line2d_15">
      <g>
       <use style="stroke:#000000;stroke-width:0.6;" x="113.385827" xlink:href="#m3d643731cb" y="297.637795"/>
      </g>
     </g>
    </g>
    <g id="xtick_16">
     <g id="line2d_16">
      <g>
       <use style="stroke:#000000;stroke-width:0.6;" x="127.559055" xlink:href="#m3d643731cb" y="297.637795"/>
      </g>
     </g>
    </g>
    <g id="xtick_17">
     <g id="line2d_17">
      <g>
       <use style="stroke:#000000;stroke-width:0.6;" x="141.732283" xlink:href="#m3d643731cb" y="297.637795"/>
      </g>
     </g>
    </g>
    <g id="xtick_18">
     <g id="line2d_18">
      <g>
       <use style="stroke:#000000;stroke-width:0.6;" x="170.07874" xlink:href="#m3d643731cb" y="297.637795"/>
      </g>
     </g>
    </g>
    <g id="xtick_19">
     <g id="line2d_19">
      <g>
       <use style="stroke:#000000;stroke-width:0.6;" x="184.251969" xlink:href="#m3d643731cb" y="297.637795"/>
      </g>
     </g>
    </g>
    <g id="xtick_20">
     <g id="line2d_20">
      <g>
       <use style="stroke:#000000;stroke-width:0.6;" x="198.425197" xlink:href="#m3d643731cb" y="297.637795"/>
      </g>
     </g>
    </g>
    <g id="xtick_21">
     <g id="line2d_21">
      <g>
       <use style="stroke:#000000;stroke-width:0.6;" x="212.598425" xlink:href="#m3d643731cb" y="297.637795"/>
      </g>
     </g>
    </g>
    <g id="xtick_22">
     <g id="line2d_22">
      <g>
       <use style="stroke:#000000;stroke-width:0.6;" x="240.944882" xlink:href="#m3d643731cb" y="297.637795"/>
      </g>
     </g>
    </g>
    <g id="xtick_23">
     <g id="line2d_23">
      <g>
       <use style="stroke:#000000;stroke-width:0.6;" x="255.11811" xlink:href="#m3d643731cb" y="297.637795"/>
      </g>
     </g>
    </g>
    <g id="xtick_24">
     <g id="line2d_24">
      <g>
       <use style="stroke:#000000;stroke-width:0.6;" x="269.291339" xlink:href="#m3d643731cb" y="297.637795"/>
      </g>
     </g>
    </g>
    <g id="xtick_25">
     <g id="line2d_25">
      <g>
       <use style="stroke:#000000;stroke-width:0.6;" x="283.464567" xlink:href="#m3d643731cb" y="297.637795"/>
      </g>
     </g>
    </g>
    <g id="xtick_26">
     <g id="line2d_26">
      <g>
       <use style="stroke:#000000;stroke-width:0.6;" x="311.811024" xlink:href="#m3d643731cb" y="297.637795"/>
      </g>
     </g>
    </g>
    <g id="xtick_27">
     <g id="line2d_27">
      <g>
       <use style="stroke:#000000;stroke-width:0.6;" x="325.984252" xlink:href="#m3d643731cb" y="297.637795"/>
      </g>
     </g>
    </g>
    <g id="xtick_28">
     <g id="line2d_28">
      <g>
       <use style="stroke:#000000;stroke-width:0.6;" x="340.15748" xlink:href="#m3d643731cb" y="297.637795"/>
      </g>
     </g>
    </g>
    <g id="xtick_29">
     <g id="line2d_29">
      <g>
       <use style="stroke:#000000;stroke-width:0.6;" x="354.330709" xlink:href="#m3d643731cb" y="297.637795"/>
      </g>
     </g>
    </g>
    <g id="xtick_30">
     <g id="line2d_30">
      <g>
       <use style="stroke:#000000;stroke-width:0.6;" x="382.677165" xlink:href="#m3d643731cb" y="297.637795"/>
      </g>
     </g>
    </g>
    <g id="xtick_31">
     <g id="line2d_31">
      <g>
       <use style="stroke:#000000;stroke-width:0.6;" x="396.850394" xlink:href="#m3d643731cb" y="297.637795"/>
      </g>
     </g>
    </g>
    <g id="xtick_32">
     <g id="line2d_32">
      <g>
       <use style="stroke:#000000;stroke-width:0.6;" x="411.023622" xlink:href="#m3d643731cb" y="297.637795"/>
      </g>
     </g>
    </g>
    <g id="xtick_33">
     <g id="line2d_33">
      <g>
       <use style="stroke:#000000;stroke-width:0.6;" x="425.19685" xlink:href="#m3d643731cb" y="297.637795"/>
      </g>
     </g>
    </g>
    <g id="xtick_34">
     <g id="line2d_34">
      <g>
       <use style="stroke:#000000;stroke-width:0.6;" x="453.543307" xlink:href="#m3d643731cb" y="297.637795"/>
      </g>
     </g>
    </g>
    <g id="xtick_35">
     <g id="line2d_35">
      <g>
       <use style="stroke:#000000;stroke-width:0.6;" x="467.716535" xlink:href="#m3d643731cb" y="297.637795"/>
      </g>
     </g>
    </g>
    <g id="xtick_36">
     <g id="line2d_36">
      <g>
       <use style="stroke:#000000;stroke-width:0.6;" x="481.889764" xlink:href="#m3d643731cb" y="297.637795"/>
      </g>
     </g>
    </g>
    <g id="xtick_37">
     <g id="line2d_37">
      <g>
       <use style="stroke:#000000;stroke-width:0.6;" x="496.062992" xlink:href="#m3d643731cb" y="297.637795"/>
      </g>
     </g>
    </g>
    <g id="xtick_38">
     <g id="line2d_38">
      <g>
       <use style="stroke:#000000;stroke-width:0.6;" x="524.409449" xlink:href="#m3d643731cb" y="297.637795"/>
      </g>
     </g>
    </g>
    <g id="xtick_39">
     <g id="line2d_39">
      <g>
       <use style="stroke:#000000;stroke-width:0.6;" x="538.582677" xlink:href="#m3d643731cb" y="297.637795"/>
      </g>
     </g>
    </g>
    <g id="xtick_40">
     <g id="line2d_40">
      <g>
       <use style="stroke:#000000;stroke-width:0.6;" x="552.755906" xlink:href="#m3d643731cb" y="297.637795"/>
      </g>
     </g>
    </g>
    <g id="xtick_41">
     <g id="line2d_41">
      <g>
       <use style="stroke:#000000;stroke-width:0.6;" x="566.929134" xlink:href="#m3d643731cb" y="297.637795"/>
      </g>
     </g>
    </g>
    <g id="xtick_42">
     <g id="line2d_42">
      <g>
       <use style="stroke:#000000;stroke-width:0.6;" x="595.275591" xlink:href="#m3d643731cb" y="297.637795"/>
      </g>
     </g>
    </g>
    <g id="xtick_43">
     <g id="line2d_43">
      <g>
       <use style="stroke:#000000;stroke-width:0.6;" x="609.448819" xlink:href="#m3d643731cb" y="297.637795"/>
      </g>
     </g>
    </g>
    <g id="xtick_44">
     <g id="line2d_44">
      <g>
       <use style="stroke:#000000;stroke-width:0.6;" x="623.622047" xlink:href="#m3d643731cb" y="297.637795"/>
      </g>
     </g>
    </g>
    <g id="xtick_45">
     <g id="line2d_45">
      <g>
       <use style="stroke:#000000;stroke-width:0.6;" x="637.795276" xlink:href="#m3d643731cb" y="297.637795"/>
      </g>
     </g>
    </g>
    <g id="xtick_46">
     <g id="line2d_46">
      <g>
       <use style="stroke:#000000;stroke-width:0.6;" x="666.141732" xlink:href="#m3d643731cb" y="297.637795"/>
      </g>
     </g>
    </g>
    <g id="xtick_47">
     <g id="line2d_47">
      <g>
       <use style="stroke:#000000;stroke-width:0.6;" x="680.314961" xlink:href="#m3d643731cb" y="297.637795"/>
      </g>
     </g>
    </g>
    <g id="xtick_48">
     <g id="line2d_48">
      <g>
       <use style="stroke:#000000;stroke-width:0.6;" x="694.488189" xlink:href="#m3d643731cb" y="297.637795"/>
      </g>
     </g>
    </g>
    <g id="xtick_49">
     <g id="line2d_49">
      <g>
       <use style="stroke:#000000;stroke-width:0.6;" x="708.661417" xlink:href="#m3d643731cb" y="297.637795"/>
      </g>
     </g>
    </g>
   </g>
   <g id="matplotlib.axis_2">
    <g id="ytick_1">
     <g id="line2d_50">
      <defs>
       <path d="M 0 0 
L -3.5 0 
" id="ma379476398" style="stroke:#000000;stroke-width:0.8;"/>
      </defs>
      <g>
       <use style="stroke:#000000;stroke-width:0.8;" x="28.346457" xlink:href="#ma379476398" y="233.858268"/>
      </g>
     </g>
     <g id="text_10">
      <!-- −5 -->
      <g transform="translate(6.604269 237.657486)scale(0.1 -0.1)">
       <use xlink:href="#DejaVuSans-8722"/>
       <use x="83.789062" xlink:href="#DejaVuSans-53"/>
      </g>
     </g>
    </g>
    <g id="ytick_2">
     <g id="line2d_51">
      <g>
       <use style="stroke:#000000;stroke-width:0.8;" x="28.346457" xlink:href="#ma379476398" y="162.992126"/>
      </g>
     </g>
     <g id="text_11">
      <!-- 0 -->
      <g transform="translate(14.983957 166.791345)scale(0.1 -0.1)">
       <use xlink:href="#DejaVuSans-48"/>
      </g>
     </g>
    </g>
    <g id="ytick_3">
     <g id="line2d_52">
      <g>
       <use style="stroke:#000000;stroke-width:0.8;" x="28.346457" xlink:href="#ma379476398" y="92.125984"/>
      </g>
     </g>
     <g id="text_12">
      <!-- 5 -->
      <g transform="translate(14.983957 95.925203)scale(0.1 -0.1)">
       <use xlink:href="#DejaVuSans-53"/>
      </g>
     </g>
    </g>
    <g id="ytick_4">
     <g id="line2d_53">
      <defs>
       <path d="M 0 0 
L -2 0 
" id="mebd5605046" style="stroke:#000000;stroke-width:0.6;"/>
      </defs>
      <g>
       <use style="stroke:#000000;stroke-width:0.6;" x="28.346457" xlink:href="#mebd5605046" y="290.551181"/>
      </g>
     </g>
    </g>
    <g id="ytick_5">
     <g id="line2d_54">
      <g>
       <use style="stroke:#000000;stroke-width:0.6;" x="28.346457" xlink:href="#mebd5605046" y="276.377953"/>
      </g>
     </g>
    </g>
    <g id="ytick_6">
     <g id="line2d_55">
      <g>
       <use style="stroke:#000000;stroke-width:0.6;" x="28.346457" xlink:href="#mebd5605046" y="262.204724"/>
      </g>
     </g>
    </g>
    <g id="ytick_7">
     <g id="line2d_56">
      <g>
       <use style="stroke:#000000;stroke-width:0.6;" x="28.346457" xlink:href="#mebd5605046" y="248.031496"/>
      </g>
     </g>
    </g>
    <g id="ytick_8">
     <g id="line2d_57">
      <g>
       <use style="stroke:#000000;stroke-width:0.6;" x="28.346457" xlink:href="#mebd5605046" y="219.685039"/>
      </g>
     </g>
    </g>
    <g id="ytick_9">
     <g id="line2d_58">
      <g>
       <use style="stroke:#000000;stroke-width:0.6;" x="28.346457" xlink:href="#mebd5605046" y="205.511811"/>
      </g>
     </g>
    </g>
    <g id="ytick_10">
     <g id="line2d_59">
      <g>
       <use style="stroke:#000000;stroke-width:0.6;" x="28.346457" xlink:href="#mebd5605046" y="191.338583"/>
      </g>
     </g>
    </g>
    <g id="ytick_11">
     <g id="line2d_60">
      <g>
       <use style="stroke:#000000;stroke-width:0.6;" x="28.346457" xlink:href="#mebd5605046" y="177.165354"/>
      </g>
     </g>
    </g>
    <g id="ytick_12">
     <g id="line2d_61">
      <g>
       <use style="stroke:#000000;stroke-width:0.6;" x="28.346457" xlink:href="#mebd5605046" y="148.818898"/>
      </g>
     </g>
    </g>
    <g id="ytick_13">
     <g id="line2d_62">
      <g>
       <use style="stroke:#000000;stroke-width:0.6;" x="28.346457" xlink:href="#mebd5605046" y="134.645669"/>
      </g>
     </g>
    </g>
    <g id="ytick_14">
     <g id="line2d_63">
      <g>
       <use style="stroke:#000000;stroke-width:0.6;" x="28.346457" xlink:href="#mebd5605046" y="120.472441"/>
      </g>
     </g>
    </g>
    <g id="ytick_15">
     <g id="line2d_64">
      <g>
       <use style="stroke:#000000;stroke-width:0.6;" x="28.346457" xlink:href="#mebd5605046" y="106.299213"/>
      </g>
     </g>
    </g>
    <g id="ytick_16">
     <g id="line2d_65">
      <g>
       <use style="stroke:#000000;stroke-width:0.6;" x="28.346457" xlink:href="#mebd5605046" y="77.952756"/>
      </g>
     </g>
    </g>
    <g id="ytick_17">
     <g id="line2d_66">
      <g>
       <use style="stroke:#000000;stroke-width:0.6;" x="28.346457" xlink:href="#mebd5605046" y="63.779528"/>
      </g>
     </g>
    </g>
    <g id="ytick_18">
     <g id="line2d_67">
      <g>
       <use style="stroke:#000000;stroke-width:0.6;" x="28.346457" xlink:href="#mebd5605046" y="49.606299"/>
      </g>
     </g>
    </g>
    <g id="ytick_19">
     <g id="line2d_68">
      <g>
       <use style="stroke:#000000;stroke-width:0.6;" x="28.346457" xlink:href="#mebd5605046" y="35.433071"/>
      </g>
     </g>
    </g>
   </g>
   <g id="line2d_69">
    <path clip-path="url(#pc5412093b8)" d="M 212.598425 122.601922 
L 215.302677 119.034265 
L 218.264882 115.496017 
L 221.487874 111.994296 
L 224.974488 108.536034 
L 228.727559 105.12813 
L 232.748504 101.778685 
L 237.03874 98.495587 
L 241.598268 95.287612 
L 246.427087 92.163274 
L 251.520945 89.133399 
L 256.877008 86.207276 
L 262.491024 83.394555 
L 268.355906 80.705719 
L 274.464567 78.150546 
L 280.807087 75.739313 
L 287.373543 73.481522 
L 294.151181 71.38689 
L 301.125827 69.464657 
L 308.283307 67.72319 
L 315.605197 66.170954 
L 323.075906 64.814813 
L 330.675591 63.661543 
L 338.382992 62.716998 
L 346.178268 61.985779 
L 354.040157 61.471652 
L 361.945984 61.17741 
L 369.874488 61.104724 
L 377.801575 61.254236 
L 385.704567 61.625422 
L 393.560787 62.216661 
L 401.347559 63.025203 
L 409.043622 64.047338 
L 416.627717 65.278281 
L 424.08 66.712391 
L 431.382047 68.343288 
L 438.514016 70.163193 
L 445.460315 72.164286 
L 452.205354 74.337825 
L 458.734961 76.674519 
L 465.036378 79.164598 
L 471.098268 81.797889 
L 476.912126 84.564592 
L 482.469449 87.454127 
L 487.76315 90.455753 
L 492.788976 93.559559 
L 497.544094 96.755969 
L 502.025669 100.03484 
L 506.232283 103.38639 
L 510.163937 106.80139 
L 513.822047 110.27143 
L 517.209449 113.789277 
L 520.327559 117.345982 
L 523.182047 120.937347 
L 524.408031 122.599953 
L 524.408031 122.599953 
" style="fill:none;stroke:#ff0000;stroke-linecap:square;stroke-width:1.5;"/>
   </g>
   <g id="line2d_70">
    <path clip-path="url(#pc5412093b8)" d="M 212.598425 122.601922 
L 212.598425 165.121607 
" style="fill:none;stroke:#ff0000;stroke-linecap:square;stroke-width:1.5;"/>
   </g>
   <g id="line2d_71">
    <path clip-path="url(#pc5412093b8)" d="M 524.409449 122.599953 
L 524.409449 165.119638 
" style="fill:none;stroke:#ff0000;stroke-linecap:square;stroke-width:1.5;"/>
   </g>
   <g id="line2d_72">
    <path clip-path="url(#pc5412093b8)" d="M 212.598425 165.121607 
L 215.302677 161.55395 
L 218.264882 158.015702 
L 221.487874 154.513981 
L 224.974488 151.055719 
L 228.727559 147.647816 
L 232.748504 144.29837 
L 237.03874 141.015272 
L 241.598268 137.807297 
L 246.427087 134.682959 
L 251.520945 131.653084 
L 256.877008 128.726961 
L 262.491024 125.91424 
L 268.355906 123.225404 
L 274.464567 120.670231 
L 280.807087 118.258998 
L 287.373543 116.001207 
L 294.151181 113.906575 
L 301.125827 111.984342 
L 308.283307 110.242875 
L 315.605197 108.690639 
L 323.075906 107.334498 
L 330.675591 106.181228 
L 338.382992 105.236683 
L 346.178268 104.505464 
L 354.040157 103.991337 
L 361.945984 103.697095 
L 369.874488 103.624409 
L 377.801575 103.773921 
L 385.704567 104.145107 
L 393.560787 104.736346 
L 401.347559 105.544888 
L 409.043622 106.567023 
L 416.627717 107.797966 
L 424.08 109.232076 
L 431.382047 110.862973 
L 438.514016 112.682878 
L 445.460315 114.683971 
L 452.205354 116.85751 
L 458.734961 119.194204 
L 465.036378 121.684283 
L 471.098268 124.317574 
L 476.912126 127.084277 
L 482.469449 129.973812 
L 487.76315 132.975438 
L 492.788976 136.079244 
L 497.544094 139.275654 
L 502.025669 142.554526 
L 506.232283 145.906075 
L 510.163937 149.321075 
L 513.822047 152.791115 
L 517.209449 156.308962 
L 520.327559 159.865667 
L 523.182047 163.457032 
L 524.408031 165.119638 
L 524.408031 165.119638 
" style="fill:none;stroke:#ff0000;stroke-linecap:square;stroke-width:1.5;"/>
   </g>
   <g id="patch_3">
    <path d="M 28.346457 297.637795 
L 28.346457 28.346457 
" style="fill:none;stroke:#000000;stroke-linecap:square;stroke-linejoin:miter;stroke-width:0.8;"/>
   </g>
   <g id="patch_4">
    <path d="M 708.661417 297.637795 
L 708.661417 28.346457 
" style="fill:none;stroke:#000000;stroke-linecap:square;stroke-linejoin:miter;stroke-width:0.8;"/>
   </g>
   <g id="patch_5">
    <path d="M 28.346457 297.637795 
L 708.661417 297.637795 
" style="fill:none;stroke:#000000;stroke-linecap:square;stroke-linejoin:miter;stroke-width:0.8;"/>
   </g>
   <g id="patch_6">
    <path d="M 28.346457 28.346457 
L 708.661417 28.346457 
" style="fill:none;stroke:#000000;stroke-linecap:square;stroke-linejoin:miter;stroke-width:0.8;"/>
   </g>
  </g>
 </g>
 <defs>
  <clipPath id="pc5412093b8">
   <rect height="269.291339" width="680.314961" x="28.346457" y="28.346457"/>
  </clipPath>
 </defs>
</svg>
